<svg width="500" height="500" viewBox="0 0 500 500" fill="none" xmlns="http://www.w3.org/2000/svg">
<path d="M168.964 34.741C170.432 33.854 171.994 33.182 173.606 32.724L174.562 28.129L182.325 27.993L183.442 32.551C185.069 32.952 186.654 33.569 188.152 34.404L192.075 31.832L197.66 37.225L195.228 41.235C196.115 42.703 196.788 44.266 197.245 45.878L201.839 46.834L201.975 54.597L197.417 55.714C197.016 57.34 196.399 58.925 195.564 60.424L198.135 64.347L192.743 69.933L188.732 67.501C187.264 68.388 185.701 69.06 184.09 69.518L183.134 74.112L175.372 74.248L174.255 69.69C172.629 69.289 171.043 68.672 169.545 67.837L165.622 70.409L160.037 65.016L162.469 61.005C161.582 59.537 160.909 57.974 160.451 56.363L155.857 55.407L155.721 47.645L160.279 46.527C160.68 44.901 161.298 43.316 162.132 41.818L159.561 37.895L164.953 32.31L168.964 34.741ZM173.102 45.082C169.907 48.391 170 53.664 173.309 56.859C176.618 60.054 181.891 59.961 185.085 56.652C188.28 53.343 188.187 48.07 184.878 44.875C181.569 41.68 176.296 41.773 173.102 45.082Z" fill="#E0E0E0"/>
<path d="M170.804 292.279C171.65 291.767 172.551 291.38 173.481 291.116L174.032 288.466L178.509 288.388L179.153 291.016C180.091 291.247 181.005 291.603 181.869 292.085L184.131 290.602L187.352 293.712L185.95 296.025C186.462 296.872 186.849 297.773 187.113 298.702L189.762 299.253L189.841 303.73L187.213 304.374C186.982 305.312 186.626 306.226 186.144 307.09L187.627 309.353L184.517 312.574L182.204 311.172C181.357 311.684 180.456 312.071 179.527 312.335L178.976 314.985L174.499 315.063L173.855 312.434C172.917 312.203 172.003 311.847 171.139 311.365L168.876 312.848L165.655 309.738L167.057 307.425C166.545 306.578 166.157 305.677 165.894 304.748L163.245 304.197L163.166 299.72L165.794 299.075C166.025 298.137 166.381 297.223 166.863 296.359L165.38 294.096L168.49 290.875L170.804 292.279ZM173.19 298.243C171.347 300.152 171.401 303.192 173.309 305.035C175.218 306.878 178.258 306.824 180.101 304.916C181.943 303.007 181.89 299.967 179.982 298.124C178.073 296.281 175.033 296.335 173.19 298.243Z" fill="#E0E0E0"/>
<path d="M73.284 59.427C73.862 59.078 74.477 58.813 75.111 58.633L75.487 56.824L78.543 56.77L78.983 58.564C79.623 58.722 80.248 58.965 80.837 59.293L82.381 58.281L84.58 60.404L83.623 61.983C83.972 62.561 84.237 63.176 84.417 63.811L86.226 64.187L86.28 67.243L84.486 67.683C84.328 68.323 84.085 68.947 83.757 69.537L84.769 71.081L82.646 73.28L81.067 72.323C80.489 72.672 79.874 72.937 79.239 73.117L78.863 74.926L75.807 74.98L75.367 73.186C74.727 73.028 74.103 72.785 73.513 72.457L71.969 73.469L69.77 71.346L70.727 69.767C70.378 69.189 70.113 68.574 69.933 67.94L68.124 67.564L68.07 64.508L69.864 64.068C70.022 63.428 70.265 62.804 70.593 62.214L69.581 60.67L71.704 58.471L73.284 59.427ZM74.913 63.498C73.655 64.801 73.692 66.876 74.994 68.134C76.297 69.392 78.372 69.355 79.63 68.052C80.887 66.749 80.851 64.674 79.549 63.416C78.246 62.159 76.17 62.195 74.913 63.498Z" fill="#E0E0E0"/>
<path d="M222.556 53.03C223.698 52.34 224.914 51.817 226.168 51.46L226.912 47.885L232.952 47.779L233.821 51.325C235.087 51.637 236.32 52.117 237.486 52.767L240.539 50.766L244.885 54.962L242.993 58.082C243.683 59.224 244.207 60.441 244.563 61.694L248.137 62.438L248.243 68.478L244.697 69.347C244.385 70.612 243.905 71.846 243.255 73.011L245.256 76.064L241.06 80.41L237.939 78.518C236.797 79.208 235.581 79.731 234.327 80.087L233.583 83.662L227.543 83.768L226.674 80.222C225.409 79.91 224.175 79.43 223.01 78.78L219.957 80.781L215.611 76.585L217.503 73.465C216.813 72.323 216.289 71.107 215.933 69.853L212.358 69.109L212.252 63.069L215.798 62.199C216.11 60.934 216.59 59.7 217.24 58.535L215.239 55.482L219.435 51.136L222.556 53.03ZM225.776 61.076C223.29 63.651 223.362 67.753 225.937 70.239C228.512 72.725 232.614 72.653 235.1 70.078C237.586 67.503 237.514 63.401 234.939 60.915C232.364 58.429 228.262 58.501 225.776 61.076Z" fill="#EBEBEB"/>
<path d="M382.207 202.095C383.673 201.209 385.234 200.537 386.844 200.08L387.799 195.49L395.554 195.354L396.67 199.907C398.295 200.307 399.879 200.924 401.375 201.758L405.294 199.189L410.874 204.577L408.445 208.583C409.331 210.05 410.003 211.611 410.46 213.221L415.049 214.176L415.185 221.931L410.632 223.047C410.232 224.672 409.615 226.255 408.781 227.752L411.35 231.672L405.963 237.252L401.956 234.822C400.49 235.708 398.928 236.38 397.318 236.837L396.363 241.427L388.608 241.563L387.492 237.01C385.867 236.61 384.284 235.993 382.787 235.159L378.868 237.728L373.288 232.341L375.717 228.334C374.831 226.867 374.159 225.307 373.702 223.696L369.112 222.741L368.976 214.986L373.529 213.87C373.929 212.245 374.546 210.662 375.38 209.165L372.811 205.246L378.198 199.666L382.207 202.095ZM386.341 212.426C383.149 215.732 383.242 220.999 386.548 224.191C389.854 227.383 395.121 227.29 398.313 223.984C401.504 220.678 401.412 215.411 398.106 212.219C394.799 209.027 389.532 209.12 386.341 212.426Z" fill="#E0E0E0"/>
<path d="M437.006 51.22C437.006 38.288 425.319 28.086 411.931 30.599C403.51 32.179 396.799 39.057 395.324 47.497C394.402 52.773 395.491 57.735 397.897 61.831H397.885L397.945 61.91C398.75 63.267 399.759 64.238 400.779 65.664L412.974 81.818C414.491 83.828 417.511 83.828 419.028 81.818L431.02 65.93C431.02 65.93 433.258 63.261 434.07 61.889L434.113 61.832H434.105C435.938 58.714 437.006 55.096 437.006 51.22ZM416.002 60.364C410.897 60.364 406.759 56.225 406.759 51.121C406.759 46.016 410.897 41.878 416.002 41.878C421.107 41.878 425.245 46.016 425.245 51.121C425.246 56.226 421.107 60.364 416.002 60.364Z" fill="#E0E0E0"/>
<path d="M67.27 353.451C71.416 350.678 73.72 345.398 72.678 339.907C71.308 332.715 64.731 327.923 57.986 329.204C51.244 330.484 46.886 337.353 48.256 344.545C49.311 350.086 53.462 354.167 58.395 355.179C40.171 361.663 44.996 381.902 44.996 381.902L89.433 373.462C89.433 373.462 86.428 352.638 67.27 353.451Z" fill="#EBEBEB"/>
<path d="M121.095 439.726L111.948 437.472C111.948 437.472 110.056 445.152 102.04 443.324C97.877 442.374 96.397 439.129 96.036 436.834C95.617 434.169 96.602 431.491 98.513 429.586C100.695 427.41 104.668 425.923 110.565 428.528L115.647 407.903L106.602 405.675L103.625 417.756C103.625 417.756 90.131 417.91 86.687 431.89C83.391 445.266 94.621 451.328 99.756 452.593C103.682 453.56 117.292 455.906 121.095 439.726Z" fill="#EBEBEB"/>
<path d="M107.523 401.387L116.702 403.648L118.815 395.074L109.635 392.813L107.523 401.387Z" fill="#EBEBEB"/>
<path d="M468.116 470.897C468.116 471.041 370.783 471.157 250.745 471.157C130.665 471.157 33.353 471.041 33.353 470.897C33.353 470.753 130.665 470.637 250.745 470.637C370.783 470.637 468.116 470.753 468.116 470.897Z" fill="black"/>
<path d="M58.017 219.201H78.891L77.045 228.573H39.415L40.906 221.118L63.555 203.369C69.164 198.896 70.868 196.269 70.868 193.003C70.868 189.737 68.383 187.536 63.555 187.536C59.579 187.536 55.745 189.382 52.976 192.719L45.237 187.11C49.213 181.643 56.668 178.022 65.258 178.022C75.766 178.022 82.653 183.631 82.653 191.37C82.653 197.263 79.955 202.233 71.222 208.978L58.017 219.201Z" fill="#F0F0F0"/>
<path d="M128.662 218.136H120.497L118.438 228.573H107.22L109.35 218.136H82.584L84.075 210.397L113.327 178.874H125.894L98.63 208.764H111.693L113.539 199.463H124.26L122.414 208.764H130.578L128.662 218.136Z" fill="#F0F0F0"/>
<path d="M161.464 168.791H171.83L135.336 235.672H125.041L161.464 168.791Z" fill="#F0F0F0"/>
<path d="M208.82 178.873L207.329 186.327L180.775 228.572H167.995L193.484 188.244H177.367L175.734 196.338H165.51L168.989 178.872H208.82V178.873Z" fill="#F0F0F0"/>
<path d="M34.771 267.776L37.679 262.258C40.325 263.936 43.382 264.83 46.365 264.83C49.198 264.83 50.838 263.935 50.838 262.518C50.838 259.014 38.164 260.953 38.164 252.751C38.164 247.122 42.973 243.432 50.689 243.432C54.379 243.432 57.734 244.215 60.083 245.668L57.399 251.148C55.349 249.843 52.814 249.172 50.242 249.172C47.185 249.172 45.545 250.29 45.545 251.706C45.508 255.285 58.219 253.234 58.219 261.287C58.219 266.878 53.299 270.568 45.656 270.568C41.183 270.571 37.119 269.378 34.771 267.776Z" fill="#F0F0F0"/>
<path d="M71.373 249.658L70.516 254.057H82.109L81.028 259.574H69.398L68.466 264.346H82.147L80.954 270.049H60.04L65.259 243.955H85.687L84.531 249.659L71.373 249.658Z" fill="#F0F0F0"/>
<path d="M104.731 262.221L109.167 270.049H101.45L97.574 263.115H93.846L92.467 270.049H85.086L90.305 243.955H101.451C108.124 243.955 111.963 247.049 111.963 252.268C111.962 257.077 109.279 260.656 104.731 262.221ZM100.407 249.771H96.53L94.965 257.413H99.363C102.606 257.413 104.508 255.848 104.508 252.976C104.507 250.777 102.941 249.771 100.407 249.771Z" fill="#F0F0F0"/>
<path d="M144.314 243.955L127.949 270.049H120.68L114.753 243.955H122.32L126.048 260.916L136.709 243.955H144.314Z" fill="#F0F0F0"/>
<path d="M145.875 243.955H153.256L148.037 270.049H140.656L145.875 243.955Z" fill="#F0F0F0"/>
<path d="M154.408 259.089C154.408 250.031 161.08 243.433 170.773 243.433C175.582 243.433 179.496 245.185 181.359 248.353L176.028 252.603C174.798 250.626 172.897 249.545 170.287 249.545C165.218 249.545 161.863 253.46 161.863 258.604C161.863 262.108 164.249 264.457 168.237 264.457C170.586 264.457 172.748 263.562 174.611 261.437L178.972 265.724C176.027 269.265 172.188 270.57 167.528 270.57C159.515 270.571 154.408 265.911 154.408 259.089Z" fill="#F0F0F0"/>
<path d="M192.128 249.658L191.271 254.057H202.864L201.783 259.574H190.153L189.221 264.346H202.9L201.707 270.049H180.794L186.013 243.955H206.441L205.285 249.659L192.128 249.658Z" fill="#F0F0F0"/>
<path d="M63.152 164.161H48.583C48.583 143.878 56.79 123.139 71.1 107.263C86.163 90.552 105.707 81.349 126.129 81.349C167.802 81.349 196.907 111.769 196.907 155.324H182.338C182.338 119.791 159.749 95.918 126.129 95.918C93.169 95.918 63.152 128.445 63.152 164.161Z" fill="#FFDC5E"/>
<path d="M71.142 160.108C73.47 160.146 75.356 160.342 75.355 160.546C75.353 160.75 73.465 160.917 71.136 160.92C68.809 160.923 66.923 160.727 66.925 160.482C66.926 160.237 68.815 160.07 71.142 160.108Z" fill="#F0F0F0"/>
<path d="M81.198 128.173C83.147 129.448 84.548 130.763 84.328 131.111C84.108 131.459 82.32 130.754 80.334 129.538C78.35 128.322 76.948 127.007 77.206 126.601C77.462 126.194 79.251 126.898 81.198 128.173Z" fill="#F0F0F0"/>
<path d="M106.405 106.16C107.348 108.289 107.816 110.153 107.45 110.323C107.084 110.493 105.961 108.934 104.941 106.841C103.922 104.749 103.454 102.885 103.897 102.679C104.339 102.473 105.463 104.033 106.405 106.16Z" fill="#F0F0F0"/>
<path d="M139.598 103.543C139.018 105.798 138.23 107.551 137.839 107.458C137.447 107.365 137.532 105.445 138.027 103.17C138.522 100.896 139.31 99.143 139.786 99.256C140.262 99.369 140.178 101.29 139.598 103.543Z" fill="#F0F0F0"/>
<path d="M166.722 122.595C164.782 123.883 163.026 124.663 162.799 124.336C162.572 124.009 163.918 122.637 165.805 121.272C167.69 119.908 169.447 119.128 169.727 119.532C170.007 119.936 168.661 121.308 166.722 122.595Z" fill="#F0F0F0"/>
<path d="M175.654 154.015C173.325 154.012 171.437 153.842 171.436 153.635C171.435 153.428 173.321 153.235 175.649 153.205C177.976 153.175 179.864 153.345 179.866 153.585C179.868 153.825 177.981 154.018 175.654 154.015Z" fill="#F0F0F0"/>
<path d="M122.153 158.335C121.455 158.335 120.754 158.11 120.168 157.654L95.684 138.638C94.272 137.541 94.016 135.507 95.113 134.095C96.209 132.684 98.242 132.427 99.656 133.524L121.965 150.852L152.821 122.523C154.13 121.305 156.178 121.38 157.397 122.69C158.614 124 158.54 126.048 157.23 127.266L124.358 157.469C123.74 158.043 122.947 158.335 122.153 158.335Z" fill="#FFDC5E"/>
<path d="M138.757 71.682H110.682C110.244 71.682 109.89 71.327 109.89 70.89V60.725C109.89 60.287 110.245 59.933 110.682 59.933H138.757C139.195 59.933 139.549 60.288 139.549 60.725V70.89C139.549 71.327 139.195 71.682 138.757 71.682Z" fill="#FFDC5E"/>
<path d="M132.385 65.807H117.054V79.705H132.385V65.807Z" fill="#FFDC5E"/>
<path d="M71.322 103.871L59.806 118.133C59.358 118.688 58.544 118.775 57.989 118.327L50.119 111.972C49.564 111.524 49.477 110.71 49.925 110.155L61.441 95.893C61.889 95.338 62.703 95.251 63.258 95.699L71.129 102.054C71.684 102.503 71.77 103.316 71.322 103.871Z" fill="#FFDC5E"/>
<path d="M138.761 71.682C138.761 71.846 132.474 71.98 124.721 71.98C116.965 71.98 110.679 71.847 110.679 71.682C110.679 71.518 116.965 71.384 124.721 71.384C132.474 71.384 138.761 71.518 138.761 71.682Z" fill="#F0F0F0"/>
<path d="M61.18 115.677C61.023 115.856 58.903 114.238 56.283 112.268C53.666 110.292 51.527 108.7 51.656 108.499C51.778 108.307 54.145 109.596 56.791 111.594C59.439 113.587 61.331 115.507 61.18 115.677Z" fill="#F0F0F0"/>
<path d="M63.616 112.088C63.459 112.267 61.339 110.649 58.719 108.679C56.102 106.703 53.963 105.111 54.092 104.91C54.214 104.718 56.581 106.007 59.227 108.005C61.875 109.998 63.767 111.918 63.616 112.088Z" fill="#F0F0F0"/>
<path d="M66.614 109.08C66.457 109.259 64.337 107.641 61.717 105.671C59.1 103.695 56.961 102.103 57.09 101.902C57.212 101.71 59.579 102.999 62.225 104.997C64.873 106.99 66.766 108.91 66.614 109.08Z" fill="#F0F0F0"/>
<path d="M69.512 105.491C69.355 105.67 67.235 104.052 64.615 102.082C61.998 100.106 59.859 98.514 59.988 98.313C60.11 98.121 62.477 99.41 65.123 101.408C67.771 103.401 69.664 105.321 69.512 105.491Z" fill="#F0F0F0"/>
<path d="M185.839 108.998L173.444 95.493C172.962 94.967 172.997 94.15 173.522 93.668L180.975 86.828C181.501 86.346 182.318 86.381 182.8 86.906L195.195 100.411C195.677 100.937 195.642 101.754 195.117 102.236L187.664 109.076C187.139 109.559 186.321 109.524 185.839 108.998Z" fill="#FFDC5E"/>
<path d="M175.669 97.217C175.515 97.035 177.43 95.178 179.767 92.88C182.11 90.585 184.001 88.706 184.18 88.863C184.352 89.012 182.726 91.161 180.357 93.481C177.994 95.805 175.815 97.392 175.669 97.217Z" fill="#F0F0F0"/>
<path d="M178.857 100.159C178.703 99.977 180.618 98.12 182.955 95.822C185.298 93.527 187.19 91.648 187.369 91.805C187.541 91.954 185.914 94.103 183.546 96.423C181.182 98.747 179.002 100.333 178.857 100.159Z" fill="#F0F0F0"/>
<path d="M181.386 103.57C181.232 103.388 183.147 101.531 185.484 99.233C187.827 96.938 189.719 95.059 189.897 95.216C190.069 95.365 188.443 97.514 186.074 99.834C183.712 102.158 181.532 103.745 181.386 103.57Z" fill="#F0F0F0"/>
<path d="M184.505 106.968C184.351 106.786 186.266 104.929 188.603 102.631C190.946 100.336 192.837 98.457 193.016 98.614C193.188 98.763 191.562 100.912 189.193 103.232C186.831 105.557 184.651 107.143 184.505 106.968Z" fill="#F0F0F0"/>
<path d="M113.834 71.668C113.601 71.668 113.412 69.074 113.412 65.875C113.412 62.675 113.601 60.082 113.834 60.082C114.067 60.082 114.256 62.675 114.256 65.875C114.255 69.074 114.066 71.668 113.834 71.668Z" fill="#F0F0F0"/>
<path d="M119.328 71.668C119.095 71.668 118.906 69.074 118.906 65.875C118.906 62.675 119.095 60.082 119.328 60.082C119.561 60.082 119.75 62.675 119.75 65.875C119.75 69.074 119.561 71.668 119.328 71.668Z" fill="#F0F0F0"/>
<path d="M124.823 71.668C124.59 71.668 124.401 69.074 124.401 65.875C124.401 62.675 124.59 60.082 124.823 60.082C125.056 60.082 125.245 62.675 125.245 65.875C125.244 69.074 125.055 71.668 124.823 71.668Z" fill="#F0F0F0"/>
<path d="M130.317 71.668C130.084 71.668 129.895 69.074 129.895 65.875C129.895 62.675 130.084 60.082 130.317 60.082C130.55 60.082 130.738 62.675 130.738 65.875C130.738 69.074 130.55 71.668 130.317 71.668Z" fill="#F0F0F0"/>
<path d="M135.811 71.668C135.578 71.668 135.389 69.074 135.389 65.875C135.389 62.675 135.578 60.082 135.811 60.082C136.044 60.082 136.232 62.675 136.232 65.875C136.233 69.074 136.044 71.668 135.811 71.668Z" fill="#F0F0F0"/>
<path d="M128.091 159.168C130.957 156.302 130.957 151.655 128.091 148.789C125.225 145.923 120.578 145.923 117.712 148.789C114.846 151.655 114.846 156.302 117.712 159.168C120.578 162.034 125.225 162.034 128.091 159.168Z" fill="#FFDC5E"/>
<path d="M130.242 153.98C130.168 153.983 130.181 153.326 129.871 152.224C129.564 151.142 128.816 149.565 127.183 148.358C125.605 147.148 123.018 146.477 120.522 147.413C118.046 148.272 115.913 150.906 115.941 153.979C115.913 157.053 118.046 159.688 120.522 160.547C123.018 161.483 125.605 160.812 127.183 159.602C128.816 158.395 129.564 156.818 129.871 155.736C130.181 154.633 130.168 153.976 130.242 153.98C130.268 153.98 130.285 154.141 130.294 154.452C130.309 154.762 130.278 155.225 130.154 155.807C129.923 156.953 129.216 158.669 127.505 160.024C125.853 161.381 123.046 162.189 120.285 161.198C117.549 160.295 115.155 157.388 115.188 153.979C115.156 150.571 117.549 147.665 120.285 146.762C123.046 145.771 125.852 146.579 127.505 147.936C129.217 149.291 129.924 151.007 130.155 152.153C130.278 152.734 130.309 153.198 130.295 153.508C130.286 153.818 130.268 153.98 130.242 153.98Z" fill="#F0F0F0"/>
<path d="M381.265 179.142L393.81 177.159C399.682 181.893 406.893 185.112 414.923 186.128C438.015 189.047 459.104 172.668 462.027 149.545C464.95 126.421 448.601 105.309 425.509 102.389C402.418 99.47 381.328 115.849 378.405 138.973C377.184 148.629 379.333 157.928 383.921 165.704L383.904 165.687L381.265 179.142Z" fill="white"/>
<path d="M381.265 179.142C381.265 179.142 381.308 178.863 381.413 178.291C381.523 177.7 381.681 176.848 381.89 175.73C382.325 173.433 382.963 170.057 383.795 165.664C383.806 165.603 383.865 165.564 383.925 165.575C383.947 165.579 383.968 165.591 383.983 165.606L384 165.622L383.825 165.758C381.058 161.091 378.267 154.324 377.929 145.874C377.839 143.772 377.919 141.58 378.181 139.33C378.553 137.099 378.849 134.761 379.6 132.456C380.928 127.813 383.147 123.09 386.393 118.773C389.626 114.457 393.879 110.557 398.967 107.596C404.045 104.632 409.962 102.623 416.239 102.014C422.51 101.37 429.123 102.241 435.328 104.621C441.512 107.01 447.382 110.84 451.907 116.093L453.612 118.091C454.141 118.785 454.621 119.514 455.126 120.222C456.187 121.606 456.947 123.172 457.818 124.656C458.258 125.397 458.544 126.214 458.912 126.987C459.24 127.777 459.655 128.532 459.909 129.346C460.415 130.972 461.08 132.544 461.38 134.207C462.964 140.759 462.932 147.504 461.534 153.73C460.108 159.96 457.274 165.624 453.612 170.305C449.947 174.997 445.45 178.707 440.687 181.338C435.92 183.979 430.895 185.537 426.08 186.205C423.672 186.6 421.307 186.595 419.033 186.619C416.765 186.432 414.566 186.345 412.497 185.914C404.165 184.354 397.89 180.619 393.743 177.241L393.827 177.264C389.741 177.881 386.595 178.356 384.45 178.679C383.408 178.833 382.613 178.951 382.06 179.032C381.526 179.112 381.265 179.142 381.265 179.142C381.265 179.142 381.553 179.085 382.098 178.993C382.656 178.899 383.459 178.764 384.51 178.587C386.633 178.236 389.748 177.721 393.793 177.052C393.824 177.047 393.855 177.057 393.878 177.075C398.032 180.402 404.287 184.071 412.558 185.582C414.612 186.001 416.795 186.077 419.043 186.255C421.298 186.222 423.641 186.219 426.025 185.819C430.794 185.141 435.764 183.584 440.475 180.958C445.183 178.343 449.624 174.663 453.24 170.017C456.853 165.381 459.645 159.78 461.048 153.621C462.423 147.465 462.448 140.801 460.88 134.331C460.583 132.688 459.924 131.136 459.425 129.53C459.175 128.725 458.764 127.981 458.439 127.2C458.074 126.437 457.793 125.63 457.357 124.898C456.495 123.433 455.746 121.885 454.697 120.519C454.198 119.82 453.723 119.1 453.201 118.414L451.516 116.441C447.047 111.251 441.25 107.469 435.144 105.105C429.017 102.751 422.482 101.883 416.285 102.514C410.081 103.109 404.23 105.086 399.204 108.008C394.167 110.926 389.952 114.776 386.742 119.039C383.52 123.304 381.309 127.973 379.979 132.568C379.228 134.85 378.927 137.165 378.549 139.376C378.281 141.606 378.192 143.779 378.273 145.864C378.571 154.246 381.303 160.983 384.017 165.648C384.049 165.701 384.031 165.77 383.978 165.801C383.934 165.827 383.877 165.819 383.842 165.784L383.825 165.767L384.013 165.709C383.13 170.058 382.451 173.399 381.989 175.673C381.757 176.8 381.58 177.659 381.457 178.255C381.337 178.835 381.265 179.142 381.265 179.142Z" fill="#263238"/>
<path d="M433.156 145.477C433.156 143.109 435.075 141.19 437.442 141.19C439.81 141.19 441.729 143.109 441.729 145.477C441.729 147.844 439.81 149.763 437.442 149.763C435.076 149.763 433.156 147.844 433.156 145.477Z" fill="#263238"/>
<path d="M416.002 145.477C416.002 143.109 417.921 141.19 420.288 141.19C422.656 141.19 424.575 143.109 424.575 145.477C424.575 147.844 422.656 149.763 420.288 149.763C417.922 149.763 416.002 147.844 416.002 145.477Z" fill="#263238"/>
<path d="M398.892 147.62C397.708 145.57 398.411 142.948 400.461 141.765C402.511 140.581 405.133 141.284 406.316 143.334C407.499 145.384 406.797 148.006 404.747 149.19C402.698 150.373 400.076 149.67 398.892 147.62Z" fill="#263238"/>
<path d="M99.294 299.001C96.656 297.749 92.229 295.143 89.494 294.119C86.759 293.095 83.693 292.612 80.923 293.538C79.304 294.08 77.697 295.365 77.686 297.071L88.439 304.955L99.294 302.098V299.001Z" fill="#FF9A6C"/>
<path d="M87.532 298.89C87.532 298.89 68.215 294.704 65.037 293.046C61.858 291.388 44.99 282.946 42.193 282.946C39.396 282.946 36.98 283.709 36.471 286.506L40.145 289.362L40.612 290.821L46.892 294.092L48.042 296.201L64.02 304.739C64.02 304.739 80.804 313.258 83.601 313.767C86.398 314.276 100.385 315.42 106.361 320.506L130.361 310.656C130.361 310.656 123.426 300.807 118.093 298.386C113.334 296.226 105.344 296.221 99.749 298.51L87.532 298.89Z" fill="#FFBF9D"/>
<path d="M103.593 315.034C103.593 315.034 134.143 381.653 139.059 394.996C139.059 394.996 173.21 389.385 174.38 370.425L130.36 310.433L103.593 315.034Z" fill="#FFBF9D"/>
<path d="M75.216 300.397C75.214 300.415 75.102 300.412 74.889 300.389C74.672 300.377 74.365 300.307 73.97 300.204C73.186 299.985 72.09 299.554 70.79 298.92C69.487 298.291 67.981 297.462 66.32 296.533C65.488 296.071 64.619 295.579 63.706 295.105C62.804 294.628 61.81 294.233 60.803 293.791C58.79 292.923 56.849 292.162 55.023 291.689C53.212 291.24 51.471 290.897 50.161 291.336C48.843 291.789 48.253 292.916 47.918 293.602C47.577 294.322 47.458 294.756 47.408 294.74C47.391 294.735 47.408 294.624 47.457 294.416C47.5 294.206 47.587 293.903 47.732 293.522C47.88 293.143 48.087 292.68 48.442 292.206C48.788 291.732 49.322 291.254 50.038 290.99C50.75 290.712 51.59 290.682 52.447 290.753C53.308 290.829 54.207 290.994 55.142 291.225C57.013 291.683 58.989 292.442 61.009 293.313C62.013 293.753 63.015 294.156 63.943 294.653C64.866 295.141 65.732 295.642 66.558 296.116C68.207 297.069 69.687 297.927 70.958 298.592C72.226 299.262 73.283 299.738 74.034 300.011C74.782 300.287 75.223 300.346 75.216 300.397Z" fill="#FF9A6C"/>
<path d="M56.795 290.821C56.774 290.88 55.717 290.586 54.091 289.884C52.484 289.157 50.28 288.136 47.744 287.349C46.494 286.97 45.219 286.944 44.092 287.037C42.967 287.129 42.024 287.577 41.515 288.237C41.003 288.895 40.856 289.602 40.757 290.07C40.691 290.549 40.651 290.822 40.612 290.821C40.579 290.821 40.55 290.548 40.555 290.046C40.597 289.555 40.684 288.791 41.221 288.013C41.499 287.639 41.888 287.282 42.38 287.031C42.872 286.784 43.44 286.635 44.035 286.56C45.216 286.434 46.553 286.449 47.885 286.848C50.486 287.654 52.687 288.744 54.245 289.55C55.816 290.329 56.824 290.745 56.795 290.821Z" fill="#FF9A6C"/>
<path d="M104.953 297.011C104.964 297.045 104.685 297.166 104.169 297.354C103.655 297.548 102.895 297.783 101.945 298.033C100.047 298.537 97.359 299.03 94.356 299.164C91.352 299.292 88.631 299.035 86.696 298.698C85.728 298.531 84.95 298.363 84.421 298.215C83.891 298.072 83.602 297.976 83.61 297.941C83.628 297.859 84.816 298.095 86.749 298.334C88.681 298.575 91.368 298.77 94.334 298.644C97.298 298.511 99.958 298.083 101.861 297.675C103.764 297.269 104.927 296.931 104.953 297.011Z" fill="#FF9A6C"/>
<path d="M389.444 257.452L344.951 248.252L334.015 240.002L275.308 251.323C274.372 253.039 264.856 266.288 264.856 266.288L241.741 274.141C231.855 276.797 223.038 282.363 216.656 290.159C211.779 296.117 206.342 304.343 201.689 315.261C191.288 339.667 176.276 367.869 176.276 367.869L166.865 352.714L127.211 371.385C127.211 371.385 150.441 418.222 158.132 424.909C166.681 432.342 186.335 433.198 199.926 419.336C208.119 410.98 231.791 377.935 236.721 369.664L244 404.258L250.734 443.734L239.853 470.897H398.651L392.081 445.224C392.081 445.224 398.554 378.286 400.339 365.834C404.553 336.445 389.444 257.452 389.444 257.452Z" fill="#FFDC5E"/>
<path d="M389.444 257.452C389.444 257.452 421.244 266.374 428.243 297.977C432.485 317.131 446.886 371.716 451.95 416.661C454.96 443.378 454.867 468.072 454.96 470.897H406.159L385.473 266.372L389.444 257.452Z" fill="#FFDC5E"/>
<path d="M307.884 284.594C307.895 284.6 307.849 284.712 307.75 284.923C307.628 285.171 307.479 285.474 307.298 285.844C306.903 286.649 306.332 287.831 305.65 289.347C304.246 292.359 302.582 296.803 299.906 301.77L299.769 302.023L299.548 301.834C296.251 299.024 292.666 295.644 288.967 291.992C282.423 285.494 276.682 279.442 272.436 275.151C270.34 273.044 268.629 271.324 267.395 270.084C266.827 269.519 266.369 269.064 266.016 268.713C265.705 268.395 265.547 268.222 265.559 268.209C265.571 268.196 265.753 268.343 266.087 268.636C266.457 268.969 266.937 269.401 267.534 269.937C268.773 271.085 270.548 272.767 272.695 274.891C277.011 279.118 282.796 285.132 289.332 291.622C293.026 295.27 296.589 298.655 299.851 301.478L299.493 301.543C302.184 296.639 303.913 292.214 305.393 289.229C306.114 287.726 306.727 286.561 307.164 285.776C307.372 285.419 307.542 285.127 307.681 284.888C307.805 284.687 307.873 284.587 307.884 284.594Z" fill="black"/>
<path d="M345.624 249.376C345.642 249.379 345.609 249.62 345.529 250.076C345.434 250.583 345.311 251.244 345.157 252.068C344.796 253.79 344.194 256.265 343.337 259.292C341.613 265.343 338.814 273.575 335.376 282.531C333.553 287.272 331.753 291.747 330.071 295.722L329.942 296.026L329.694 295.807C325.162 291.81 321.103 288.661 318.35 286.315C316.965 285.151 315.886 284.212 315.163 283.553C314.832 283.244 314.563 282.993 314.345 282.79C314.163 282.613 314.073 282.517 314.082 282.507C314.091 282.497 314.198 282.574 314.397 282.732C314.628 282.92 314.913 283.153 315.263 283.439C316.066 284.092 317.165 284.984 318.533 286.095C321.336 288.376 325.431 291.468 330.011 295.453L329.635 295.538C331.286 291.56 333.07 287.081 334.891 282.345C338.325 273.398 341.175 265.2 342.985 259.189C343.885 256.182 344.539 253.728 344.96 252.024C345.153 251.21 345.308 250.557 345.427 250.057C345.539 249.607 345.606 249.373 345.624 249.376Z" fill="black"/>
<path d="M242.751 399.832C242.742 399.835 242.713 399.758 242.663 399.605C242.607 399.422 242.538 399.199 242.455 398.925C242.271 398.282 242.019 397.404 241.702 396.294C241.363 395.154 241.028 393.739 240.628 392.099C240.21 390.462 239.8 388.584 239.368 386.503C237.592 378.19 235.813 366.561 234.708 353.639C233.582 340.713 233.333 328.96 233.388 320.465C233.423 316.216 233.504 312.779 233.622 310.406C233.679 309.253 233.724 308.341 233.756 307.674C233.775 307.388 233.791 307.155 233.804 306.964C233.818 306.804 233.829 306.723 233.838 306.723C233.847 306.723 233.853 306.806 233.857 306.966C233.858 307.157 233.859 307.391 233.861 307.678C233.852 308.346 233.84 309.259 233.824 310.412C233.769 312.785 233.743 316.221 233.756 320.466C233.795 328.954 234.103 340.687 235.227 353.595C236.331 366.498 238.049 378.112 239.729 386.43C240.137 388.512 240.521 390.393 240.912 392.033C241.284 393.677 241.59 395.097 241.899 396.243C242.177 397.363 242.396 398.248 242.557 398.897C242.621 399.177 242.673 399.404 242.716 399.591C242.747 399.748 242.76 399.83 242.751 399.832Z" fill="black"/>
<path d="M392.081 292.515C392.089 292.512 392.135 292.604 392.218 292.788C392.309 293 392.425 293.271 392.571 293.61C392.885 294.371 393.324 295.436 393.884 296.792C394.161 297.486 394.491 298.25 394.81 299.101C395.103 299.965 395.42 300.901 395.76 301.904C396.1 302.912 396.463 303.989 396.848 305.129C397.166 306.292 397.502 307.521 397.854 308.81C400.831 319.104 402.345 333.987 401.486 350.281C400.607 366.582 398.707 381.232 397.528 391.845C396.916 397.123 396.42 401.407 396.072 404.411C395.895 405.866 395.756 407.009 395.657 407.825C395.607 408.191 395.567 408.483 395.536 408.712C395.506 408.911 395.486 409.013 395.477 409.012C395.468 409.011 395.47 408.908 395.483 408.706C395.501 408.476 395.524 408.182 395.552 407.814C395.628 406.995 395.734 405.848 395.869 404.389C396.151 401.415 396.591 397.115 397.161 391.804C398.247 381.18 400.088 366.524 400.965 350.256C401.82 333.995 400.372 319.187 397.497 308.903C397.158 307.615 396.836 306.387 396.53 305.224C396.16 304.083 395.81 303.005 395.483 301.996C395.158 300.99 394.855 300.051 394.575 299.185C394.27 298.33 393.956 297.562 393.693 296.864C393.173 295.495 392.765 294.418 392.473 293.65C392.347 293.302 392.246 293.025 392.168 292.809C392.103 292.618 392.073 292.518 392.081 292.515Z" fill="black"/>
<path d="M176.504 401.934C176.36 401.935 176.193 394.309 176.13 384.904C176.067 375.495 176.133 367.87 176.277 367.869C176.421 367.868 176.588 375.492 176.651 384.9C176.714 394.306 176.648 401.933 176.504 401.934Z" fill="black"/>
<path d="M320.804 448.08C320.795 448.079 320.805 447.937 320.833 447.661C320.867 447.362 320.912 446.957 320.971 446.44C321.107 445.341 321.301 443.767 321.55 441.753C321.68 440.733 321.824 439.603 321.981 438.368C322.113 437.126 322.256 435.778 322.41 434.332C322.702 431.434 323.103 428.142 323.365 424.485C323.515 422.658 323.672 420.744 323.836 418.751C323.996 416.757 324.086 414.677 324.222 412.526C324.521 408.226 324.645 403.622 324.819 398.779C325.04 389.091 325.005 378.432 324.504 367.258C323.954 356.083 322.989 345.465 321.859 335.839C321.23 331.034 320.675 326.461 319.974 322.207C319.637 320.079 319.351 318.016 319.005 316.046C318.655 314.077 318.319 312.186 317.997 310.381C317.392 306.765 316.684 303.525 316.122 300.667C315.833 299.241 315.564 297.913 315.316 296.689C315.044 295.474 314.794 294.362 314.569 293.36C314.132 291.378 313.791 289.83 313.552 288.749C313.445 288.24 313.362 287.841 313.3 287.546C313.246 287.274 313.223 287.134 313.232 287.132C313.241 287.13 313.281 287.266 313.352 287.533C313.426 287.825 313.526 288.219 313.654 288.724C313.915 289.8 314.288 291.342 314.766 293.315C315.004 294.315 315.269 295.424 315.558 296.636C315.819 297.858 316.102 299.184 316.406 300.607C316.996 303.461 317.73 306.699 318.358 310.314C318.69 312.119 319.037 314.009 319.4 315.978C319.757 317.949 320.052 320.011 320.399 322.141C321.12 326.396 321.691 330.971 322.334 335.781C323.492 345.415 324.472 356.045 325.023 367.234C325.525 378.421 325.546 389.094 325.298 398.792C325.11 403.64 324.97 408.248 324.652 412.552C324.507 414.704 324.406 416.785 324.236 418.781C324.06 420.775 323.892 422.69 323.731 424.518C323.445 428.176 323.017 431.469 322.698 434.365C322.529 435.811 322.371 437.157 322.226 438.399C322.052 439.633 321.893 440.762 321.749 441.78C321.458 443.789 321.231 445.359 321.073 446.456C320.993 446.97 320.93 447.372 320.884 447.67C320.841 447.942 320.813 448.081 320.804 448.08Z" fill="black"/>
<path d="M341.943 340.136C341.938 340.132 342.006 340.121 342.144 340.103C342.304 340.084 342.508 340.059 342.768 340.027C343.349 339.962 344.17 339.871 345.225 339.754C347.416 339.521 350.582 339.183 354.588 338.756C362.706 337.916 374.226 336.723 387.942 335.304L388.189 335.278L388.196 335.528C388.455 345.625 388.747 357.039 389.057 369.149L389.06 369.255L388.988 369.333C387.709 370.707 386.342 372.176 384.963 373.657C379.929 379.059 375.044 384.302 370.399 389.288L370.271 389.426L370.103 389.342C361.161 384.903 352.87 380.788 345.531 377.145L345.424 377.092L345.413 376.974C344.344 365.823 343.461 356.599 342.841 350.135C342.547 346.953 342.315 344.451 342.155 342.718C342.083 341.889 342.026 341.245 341.986 340.784C341.948 340.349 341.943 340.136 341.943 340.136C341.943 340.136 341.983 340.377 342.035 340.825C342.088 341.295 342.161 341.951 342.256 342.795C342.443 344.537 342.713 347.051 343.057 350.249C343.726 356.675 344.682 365.846 345.837 376.933L345.719 376.763C353.068 380.386 361.371 384.478 370.325 388.892L370.029 388.946C374.671 383.956 379.552 378.71 384.582 373.303C385.961 371.822 387.329 370.354 388.607 368.98L388.538 369.163C388.249 357.052 387.976 345.638 387.735 335.54L387.989 335.764C374.324 337.083 362.848 338.19 354.76 338.97C350.727 339.347 347.54 339.645 345.334 339.851C344.257 339.947 343.42 340.022 342.826 340.074C342.555 340.096 342.342 340.113 342.175 340.126C342.025 340.136 341.947 340.139 341.943 340.136Z" fill="black"/>
<path d="M388.253 347.18C388.258 347.216 387.641 347.331 386.522 347.51C385.403 347.692 383.778 347.919 381.768 348.176C377.748 348.694 372.179 349.283 366.026 349.869C359.914 350.467 354.385 351.008 350.274 351.41C348.325 351.615 346.716 351.784 345.504 351.911C344.377 352.028 343.752 352.075 343.747 352.04C343.742 352.004 344.358 351.889 345.478 351.71C346.597 351.528 348.221 351.301 350.232 351.044C354.252 350.526 359.821 349.937 365.976 349.351C372.086 348.753 377.614 348.213 381.725 347.81C383.674 347.605 385.283 347.436 386.495 347.309C387.622 347.192 388.248 347.144 388.253 347.18Z" fill="black"/>
<g opacity="0.3">
<path d="M397.91 386.509C398.47 393.32 399.03 400.132 399.59 406.943C403.297 389.442 409.126 370.633 408.221 352.766C407.322 335.015 405.634 317.823 395.574 301.655C395.574 301.655 402.397 318.742 401.477 339.646C400.556 360.551 397.91 386.509 397.91 386.509Z" fill="black"/>
</g>
<path d="M169.882 348.481C169.212 347.327 168.441 346.087 167.179 345.652C165.775 345.168 164.262 345.845 162.933 346.507C150.837 352.528 138.741 358.551 126.645 364.574C124.263 365.76 121.674 367.17 120.772 369.673C119.617 372.874 121.723 376.248 123.726 379C127.071 383.595 131.068 388.589 136.714 389.239L167.915 367.839C171.73 367.279 174.102 363.033 173.954 359.18C173.807 355.325 171.818 351.816 169.882 348.481Z" fill="#FFDC5E"/>
<path d="M173.821 361.556C173.833 361.569 173.723 361.69 173.503 361.906C173.234 362.16 172.911 362.467 172.521 362.835C171.664 363.637 170.394 364.765 168.799 366.129C165.611 368.859 161.077 372.486 155.844 376.185C150.606 379.88 145.67 382.94 142.031 385.03C140.212 386.077 138.724 386.896 137.681 387.435C137.204 387.678 136.806 387.881 136.477 388.049C136.199 388.184 136.049 388.248 136.04 388.232C136.031 388.216 136.165 388.122 136.426 387.957C136.742 387.766 137.123 387.535 137.582 387.258C138.66 386.614 140.098 385.755 141.843 384.712C145.429 382.544 150.319 379.444 155.544 375.758C160.763 372.069 165.321 368.498 168.564 365.845C170.13 364.55 171.421 363.482 172.389 362.681C172.803 362.342 173.148 362.06 173.435 361.826C173.676 361.637 173.809 361.543 173.821 361.556Z" fill="black"/>
<g opacity="0.3">
<path d="M345.152 251.667C340.881 265.854 334.899 281.888 329.853 295.63C325.548 291.976 319.529 287.147 315.223 283.493C318.927 290.845 323.388 297.816 328.512 304.26C329.105 305.006 329.908 305.825 330.845 305.645C331.731 305.475 332.187 304.51 332.506 303.666C335.131 296.724 337.757 289.782 340.382 282.841C344.057 273.122 347.615 261.764 345.152 251.667Z" fill="black"/>
</g>
<path d="M277.649 97.4C290.613 93.657 302.809 97.432 314.8 103.62C326.791 109.809 336.458 120.105 342.721 132.058C349.317 144.647 352.236 159.323 349.848 173.333C347.46 187.344 339.544 200.539 327.676 208.36C311.47 219.039 289.135 218.483 272.435 208.593C255.735 198.703 244.764 180.467 241.845 161.279C239.834 148.06 241.47 134.118 247.641 122.256C253.813 110.394 264.721 100.818 277.649 97.4Z" fill="#263238"/>
<path d="M320.329 138.095C317.823 133.256 317.934 127.526 316.562 122.253C313.541 110.641 302.961 102.255 291.442 98.898C280.726 95.776 268.336 98.124 256.462 103.503C248.322 107.19 240.91 112.853 236.054 120.354C229.61 130.309 228.432 143.475 233.008 154.416L292.398 138.787C298.581 142.824 304.908 146.926 312.06 148.757C314.159 149.295 316.389 149.626 318.477 149.048C320.565 148.47 322.468 146.791 322.735 144.641C323.026 142.291 321.417 140.197 320.329 138.095Z" fill="#263238"/>
<path d="M334.498 243.401L319.166 135.576C318.49 130.476 316.18 125.284 311.041 125.521L257.057 120.319C240.142 121.1 232.203 143.286 233.701 160.153C235.365 178.892 238.136 201.704 242.45 215.217C251.124 242.388 273.007 242.674 273.007 242.674C272.999 242.579 274.338 248.072 276.002 258.173L311.001 281.448L334.498 243.401Z" fill="#FFBF9D"/>
<path d="M246.732 180.657C246.953 182.553 248.742 183.93 250.726 183.735C252.706 183.54 254.137 181.85 253.916 179.953C253.694 178.057 251.906 176.679 249.926 176.873C247.941 177.067 246.51 178.761 246.732 180.657Z" fill="#263238"/>
<path d="M240.431 171.213C240.944 171.611 243.345 169.196 247.189 168.619C251.021 167.988 254.143 169.535 254.488 169C254.662 168.76 254.081 167.989 252.718 167.282C251.373 166.577 249.178 166.026 246.786 166.401C244.394 166.78 242.515 167.969 241.495 169.047C240.453 170.135 240.181 171.038 240.431 171.213Z" fill="#263238"/>
<path d="M282.259 174.883C282.479 176.779 284.268 178.155 286.252 177.96C288.232 177.765 289.663 176.075 289.442 174.178C289.221 172.282 287.432 170.903 285.452 171.098C283.467 171.292 282.037 172.987 282.259 174.883Z" fill="#263238"/>
<path d="M276.978 166.124C277.494 166.522 279.896 164.107 283.738 163.531C287.569 162.899 290.692 164.446 291.037 163.912C291.209 163.672 290.635 162.9 289.265 162.194C287.92 161.487 285.726 160.936 283.334 161.312C280.943 161.691 279.064 162.88 278.043 163.959C277.004 165.045 276.729 165.949 276.978 166.124Z" fill="#263238"/>
<path d="M268.719 196.792C268.704 196.571 266.252 196.523 262.306 196.619C261.309 196.667 260.35 196.614 260.083 195.97C259.744 195.295 259.993 194.176 260.294 192.961C260.854 190.445 261.439 187.808 262.056 185.045C264.461 173.791 266.043 164.597 265.589 164.505C265.135 164.411 262.816 173.459 260.411 184.713C259.842 187.484 259.296 190.127 258.779 192.655C258.577 193.826 258.132 195.19 258.858 196.584C259.235 197.277 260.036 197.699 260.691 197.772C261.349 197.868 261.903 197.794 262.393 197.749C266.319 197.365 268.738 197.013 268.719 196.792Z" fill="#263238"/>
<path d="M273.008 242.674C273.008 242.674 291.926 241.022 308.783 227.032C308.783 227.032 300.053 248.877 274.757 251.077L273.008 242.674Z" fill="#FF9A6C"/>
<path d="M271.759 205.807C272.862 203.769 275.13 202.395 277.574 202.287C279.269 202.212 281.077 202.759 282.297 203.963C283.518 205.165 284.024 207.062 283.301 208.497C282.487 210.114 280.371 210.781 278.458 210.54C276.544 210.298 274.782 209.332 273.099 208.359C272.634 208.089 272.157 207.807 271.828 207.39C271.499 206.974 271.353 206.385 271.615 205.959" fill="#FF9A6C"/>
<path d="M280.435 197.724C279.805 197.783 280.434 201.955 277.315 205.462C274.206 208.977 269.687 209.187 269.744 209.775C269.725 210.046 270.858 210.435 272.742 210.199C274.593 209.981 277.191 208.98 279.099 206.834C281.001 204.686 281.567 202.12 281.448 200.387C281.34 198.619 280.717 197.657 280.435 197.724Z" fill="#263238"/>
<path d="M275.898 154.642C276.436 155.629 280.198 154.548 284.788 154.403C289.379 154.166 293.215 154.93 293.671 153.902C293.869 153.413 293.085 152.527 291.461 151.74C289.849 150.952 287.378 150.347 284.625 150.459C281.873 150.576 279.46 151.384 277.92 152.303C276.367 153.223 275.659 154.171 275.898 154.642Z" fill="#263238"/>
<path d="M238.98 154.238C239.789 155.007 242.298 153.697 245.475 153.168C248.633 152.528 251.444 152.857 251.925 151.849C252.13 151.364 251.571 150.555 250.268 149.908C248.981 149.262 246.937 148.886 244.759 149.286C242.582 149.69 240.808 150.77 239.837 151.833C238.849 152.902 238.617 153.857 238.98 154.238Z" fill="#263238"/>
<path d="M329.071 128.859C321.789 113.424 295.449 94.251 278.731 97.681L253.938 117.439C256.794 126.405 264.951 133.454 274.236 134.981C279.194 135.796 284.986 135.429 288.365 139.149C291.817 142.947 290.939 149.265 294.207 153.221C298.737 158.704 308.901 157.059 312.564 163.155C314.164 165.819 313.976 169.281 315.623 171.915C317.818 175.425 327.909 178.9 331.655 177.138C335.401 175.376 334.524 168.714 335.337 165.053C336.727 158.798 335.414 155.826 334.25 152.591C331.496 144.93 332.545 136.224 329.071 128.859Z" fill="#263238"/>
<path d="M320.554 181.976C320.243 179.901 321.893 174.647 323.892 174.014C329.231 172.326 339.155 171.261 341.368 185.136C344.392 204.103 324.726 203.227 324.605 202.688C324.511 202.267 321.63 189.139 320.554 181.976Z" fill="#FFBF9D"/>
<path d="M329.253 194.579C329.327 194.505 329.621 194.757 330.219 194.925C330.804 195.087 331.768 195.11 332.697 194.582C334.584 193.527 335.763 190.077 335.311 186.644C335.084 184.91 334.461 183.324 333.632 182.06C332.832 180.765 331.78 179.938 330.742 179.921C329.702 179.848 329.083 180.566 328.936 181.136C328.766 181.708 328.948 182.067 328.852 182.115C328.807 182.172 328.395 181.863 328.423 181.056C328.442 180.667 328.592 180.183 328.98 179.748C329.376 179.305 330.015 179.011 330.731 178.974C332.21 178.843 333.741 179.978 334.651 181.365C335.643 182.746 336.385 184.522 336.639 186.469C337.127 190.31 335.741 194.198 333.125 195.428C331.847 195.988 330.669 195.764 330.023 195.408C329.361 195.032 329.193 194.623 329.253 194.579Z" fill="#FF9A6C"/>
<path d="M258.825 111.047C257.949 119.009 247.277 130.297 242.783 136.927C234.207 149.576 232.693 153.626 235.707 179.392C230.034 171.018 225.474 162.698 224.695 152.613C223.916 142.528 226.477 132.046 232.642 124.027C238.807 116.008 248.715 110.732 258.825 111.047Z" fill="#263238"/>
<path d="M304.13 83.923C308.16 79.507 313.911 76.636 319.91 75.139C328.465 73.004 337.846 73.581 345.633 77.299C353.42 81.017 359.43 87.975 361.033 95.992C362.636 104.009 359.545 112.903 352.75 118.229C357.073 122.469 362.557 125.681 368.562 127.49C366.94 129.918 363.947 131.342 360.931 131.853C357.915 132.363 354.831 132.078 351.796 131.791C353.75 134.8 356.91 137.106 360.532 138.165C355.657 139.418 350.439 139.024 345.64 137.684C340.84 136.344 336.409 134.094 332.174 131.634C317.545 123.136 309.477 115.701 299.593 102.585C298.266 97.005 300.1 88.339 304.13 83.923Z" fill="#263238"/>
<path d="M335.665 123.995C324.931 108.314 311.263 99.916 298.889 97.309Z" fill="#263238"/>
<path d="M298.889 97.31C298.881 97.348 299.507 97.536 300.641 97.841C301.771 98.161 303.399 98.653 305.359 99.398C309.281 100.866 314.505 103.491 319.609 107.356C324.713 111.223 328.742 115.444 331.425 118.669C332.748 120.3 333.82 121.621 334.51 122.573C335.222 123.509 335.632 124.017 335.665 123.995C335.697 123.973 335.349 123.423 334.689 122.445C334.052 121.451 333.025 120.087 331.735 118.415C329.118 115.11 325.101 110.806 319.95 106.904C314.798 103.003 309.486 100.404 305.497 99.022C303.503 98.319 301.846 97.883 300.695 97.627C299.539 97.386 298.897 97.271 298.889 97.31Z" fill="#455A64"/>
<path d="M348.473 137.369C348.469 137.36 348.386 137.387 348.228 137.447C348.04 137.523 347.813 137.614 347.534 137.726C346.933 137.989 346.026 138.33 344.852 138.742C342.497 139.537 338.991 140.469 334.555 140.843C330.126 141.227 324.787 141.002 319.015 139.866C313.236 138.751 307.058 136.729 300.756 134.18C294.458 131.607 288.521 128.969 283.23 126.376C277.946 123.767 273.345 121.097 269.699 118.54C266.039 116 263.314 113.623 261.518 111.898C260.603 111.051 259.944 110.342 259.483 109.873C259.271 109.661 259.097 109.487 258.954 109.344C258.832 109.227 258.766 109.17 258.759 109.177C258.752 109.184 258.803 109.253 258.911 109.383C259.043 109.536 259.203 109.723 259.399 109.95C259.833 110.444 260.469 111.18 261.364 112.055C263.119 113.835 265.819 116.271 269.469 118.867C273.105 121.48 277.709 124.2 282.998 126.843C288.297 129.473 294.227 132.125 300.545 134.706C306.867 137.263 313.089 139.283 318.917 140.379C324.74 141.496 330.13 141.681 334.591 141.243C339.061 140.814 342.581 139.814 344.927 138.95C346.097 138.504 346.994 138.129 347.582 137.831C347.852 137.698 348.072 137.589 348.254 137.5C348.403 137.422 348.477 137.378 348.473 137.369Z" fill="#455A64"/>
<path d="M291.808 231.54L289.984 227.979C290.111 227.915 302.667 221.465 307.497 217.407C318.876 207.847 329.344 192.574 329.448 192.421L332.753 194.673C332.314 195.317 321.878 210.549 310.069 220.469C304.894 224.819 292.339 231.267 291.808 231.54Z" fill="#455A64"/>
<path d="M301.157 220.493C301.157 220.493 283.981 228.146 283.981 229.847C283.981 231.548 286.702 234.949 288.743 234.779C290.784 234.609 296.682 231.291 297.703 229.931C298.723 228.57 300.642 225.075 302.683 223.375L301.157 220.493Z" fill="#263238"/>
<path d="M332.626 169.028L328.63 168.84C328.638 168.673 329.332 151.869 322.766 134.958C314.087 112.605 297.406 100.601 273.184 99.277C271.194 99.161 268.986 99.327 266.598 99.727L268.349 98.076C269.198 97.276 270.184 96.635 271.259 96.183C272.732 95.565 274.337 95.323 275.929 95.461C306.514 98.108 320.327 117.547 326.541 133.628C333.376 151.316 332.659 168.313 332.626 169.028Z" fill="#455A64"/>
<path d="M330.628 205.365C337.628 205.365 343.302 197.209 343.302 187.149C343.302 177.089 337.628 168.933 330.628 168.933C323.628 168.933 317.954 177.089 317.954 187.149C317.954 197.209 323.628 205.365 330.628 205.365Z" fill="#455A64"/>
<path d="M343.302 187.149C343.293 187.149 343.281 187.063 343.267 186.897C343.253 186.7 343.236 186.457 343.215 186.158C343.196 185.508 343.087 184.554 342.916 183.335C342.494 180.942 341.662 177.328 339.007 173.809C338.364 172.923 337.536 172.122 336.627 171.36C335.672 170.667 334.627 169.971 333.399 169.613C332.19 169.245 330.862 169.052 329.519 169.243C328.182 169.434 326.856 169.931 325.645 170.691C323.235 172.25 321.328 174.767 320.105 177.652C318.838 180.535 318.251 183.809 318.215 187.147C318.251 190.485 318.838 193.761 320.105 196.645C321.327 199.531 323.235 202.049 325.645 203.608C326.857 204.369 328.182 204.866 329.52 205.056C330.864 205.247 332.191 205.054 333.4 204.685C334.628 204.326 335.672 203.631 336.628 202.937C337.537 202.175 338.365 201.374 339.008 200.488C341.663 196.969 342.494 193.356 342.917 190.963C343.088 189.743 343.197 188.79 343.216 188.14C343.237 187.841 343.254 187.598 343.268 187.401C343.281 187.235 343.293 187.149 343.302 187.149C343.311 187.149 343.317 187.234 343.32 187.401C343.32 187.599 343.32 187.843 343.32 188.143C343.335 188.797 343.259 189.758 343.117 190.992C342.751 193.414 341.975 197.083 339.3 200.711C338.651 201.624 337.81 202.457 336.877 203.251C335.897 203.978 334.816 204.708 333.534 205.095C332.271 205.491 330.875 205.702 329.461 205.51C328.052 205.319 326.656 204.802 325.387 204.013C322.863 202.396 320.895 199.801 319.635 196.848C318.331 193.894 317.729 190.552 317.693 187.147C317.73 183.743 318.332 180.402 319.636 177.45C320.896 174.498 322.863 171.903 325.387 170.286C326.655 169.497 328.051 168.98 329.46 168.789C330.875 168.597 332.27 168.808 333.533 169.203C334.815 169.59 335.895 170.319 336.876 171.046C337.809 171.84 338.65 172.673 339.299 173.586C341.974 177.214 342.75 180.883 343.116 183.305C343.258 184.539 343.334 185.5 343.319 186.154C343.319 186.454 343.319 186.698 343.319 186.896C343.317 187.064 343.311 187.149 343.302 187.149Z" fill="#263238"/>
<path d="M332.579 197.721C337.035 197.721 340.647 192.529 340.647 186.125C340.647 179.721 337.035 174.529 332.579 174.529C328.123 174.529 324.511 179.721 324.511 186.125C324.511 192.529 328.123 197.721 332.579 197.721Z" fill="#455A64"/>
<path d="M340.646 186.125C340.587 186.127 340.607 185.25 340.364 183.702C340.085 182.184 339.545 179.893 337.859 177.674C337.022 176.586 335.849 175.533 334.318 175.037C333.558 174.808 332.725 174.688 331.883 174.809C331.044 174.93 330.214 175.243 329.453 175.722C327.939 176.704 326.736 178.292 325.965 180.117C325.166 181.94 324.795 184.012 324.771 186.124C324.794 188.237 325.165 190.31 325.964 192.133C326.735 193.958 327.938 195.547 329.452 196.528C330.213 197.007 331.044 197.32 331.883 197.441C332.725 197.562 333.558 197.442 334.318 197.213C335.849 196.716 337.021 195.663 337.859 194.575C339.545 192.355 340.085 190.065 340.364 188.547C340.607 187 340.588 186.124 340.646 186.125C340.664 186.125 340.674 186.343 340.676 186.759C340.692 187.176 340.649 187.789 340.564 188.577C340.341 190.124 339.857 192.469 338.151 194.799C337.302 195.94 336.092 197.069 334.452 197.623C333.638 197.88 332.737 198.018 331.824 197.895C330.914 197.773 330.013 197.441 329.195 196.933C327.567 195.893 326.304 194.227 325.496 192.335C324.659 190.442 324.273 188.302 324.25 186.123C324.274 183.944 324.66 181.805 325.496 179.913C326.305 178.021 327.568 176.356 329.195 175.316C330.013 174.808 330.914 174.476 331.824 174.354C332.737 174.231 333.638 174.369 334.452 174.626C336.092 175.18 337.301 176.309 338.151 177.45C339.857 179.779 340.341 182.125 340.564 183.672C340.649 184.46 340.692 185.073 340.676 185.49C340.674 185.908 340.664 186.125 340.646 186.125Z" fill="#263238"/>
<path d="M333.136 194.467C336.341 194.467 338.94 190.732 338.94 186.125C338.94 181.518 336.341 177.783 333.136 177.783C329.931 177.783 327.332 181.518 327.332 186.125C327.332 190.732 329.931 194.467 333.136 194.467Z" fill="#455A64"/>
<path d="M338.939 186.125C338.887 186.126 338.891 185.496 338.708 184.387C338.499 183.299 338.103 181.659 336.893 180.078C336.292 179.303 335.454 178.556 334.368 178.207C333.292 177.844 331.996 177.998 330.923 178.699C328.752 180.133 327.597 183.132 327.592 186.125C327.596 189.118 328.751 192.118 330.923 193.553C331.996 194.255 333.292 194.408 334.368 194.045C335.454 193.696 336.292 192.949 336.893 192.174C338.103 190.592 338.499 188.953 338.708 187.865C338.892 186.755 338.887 186.124 338.939 186.125C338.957 186.125 338.969 186.281 338.975 186.582C338.991 186.882 338.965 187.325 338.908 187.893C338.756 189.01 338.415 190.705 337.185 192.396C336.572 193.224 335.697 194.047 334.502 194.454C333.909 194.643 333.251 194.744 332.584 194.656C331.919 194.568 331.261 194.326 330.665 193.957C329.478 193.201 328.561 191.992 327.974 190.621C327.367 189.25 327.087 187.701 327.07 186.124C327.087 184.548 327.367 182.999 327.974 181.628C328.561 180.258 329.478 179.049 330.665 178.293C331.261 177.924 331.92 177.682 332.584 177.594C333.251 177.506 333.909 177.607 334.501 177.796C335.696 178.203 336.571 179.026 337.184 179.854C338.414 181.545 338.754 183.24 338.907 184.357C338.964 184.926 338.99 185.368 338.974 185.669C338.969 185.969 338.957 186.125 338.939 186.125Z" fill="#263238"/>
</svg>
