<svg width="500" height="500" viewBox="0 0 500 500" fill="none" xmlns="http://www.w3.org/2000/svg">
<path d="M413.548 247.799C322.632 195.308 175.708 195.309 85.382 247.8C-4.94901 300.295 -4.47002 385.399 86.446 437.89C177.368 490.384 324.292 490.383 414.623 437.888C504.949 385.397 504.47 300.293 413.548 247.799Z" fill="#F5F5F5"/>
<path d="M383.524 350.374L307.622 306.575L215.413 359.788C213.002 361.179 213.003 364.659 215.414 366.05L240.323 380.416C224.982 378.584 208.423 381.108 196.565 387.999C177.829 398.887 177.929 416.539 196.786 427.426C215.645 438.314 246.119 438.314 264.854 427.426C276.725 420.527 281.023 410.914 277.79 402.025L282.323 404.639C287.914 407.863 294.799 407.862 300.388 404.635L383.525 356.636C385.935 355.243 385.934 351.765 383.524 350.374Z" fill="#E6E6E6"/>
<path d="M391.132 431.391L340.504 402.161C339.012 401.299 339.008 399.146 340.498 398.28L385.118 372.349C385.813 371.945 386.67 371.944 387.366 372.346L439.119 402.225C440.611 403.087 440.615 405.24 439.125 406.106L395.628 431.384C394.238 432.192 392.523 432.194 391.132 431.391Z" fill="#E6E6E6"/>
<path d="M60.124 369.3C57.701 370.699 57.695 372.962 60.096 374.357L69.973 380.056C72.38 381.455 76.28 381.455 78.703 380.056L187.037 317.509C189.453 316.114 189.473 313.851 187.066 312.452L177.189 306.753C174.789 305.358 170.875 305.358 168.459 306.753L60.124 369.3Z" fill="#E6E6E6"/>
<path d="M90.51 378.28C88.087 379.679 88.081 381.942 90.482 383.337L100.359 389.036C102.766 390.435 106.667 390.435 109.089 389.036L201.605 335.597C204.021 334.202 204.041 331.939 201.634 330.54L191.757 324.841C189.357 323.446 185.443 323.446 183.027 324.841L90.51 378.28Z" fill="#E6E6E6"/>
<path d="M293.059 52.38L297.883 49.577L297.6 149.302L292.777 152.105L293.059 52.38Z" fill="#F0F0F0"/>
<path d="M292.777 152.105L297.6 149.302L436.717 229.621L431.893 232.424L292.777 152.105Z" fill="#F5F5F5"/>
<path d="M287.528 42.799L437.744 129.526L437.425 242.005L287.209 155.278L287.528 42.799ZM431.893 232.424L432.176 132.699L293.059 52.38L292.776 152.105L431.893 232.424Z" fill="#E0E0E0"/>
<path d="M287.528 42.799L292.352 39.996L442.567 126.723L437.744 129.526L287.528 42.799Z" fill="#F5F5F5"/>
<path d="M437.744 129.526L442.567 126.723L442.248 239.202L437.425 242.005L437.744 129.526Z" fill="#F0F0F0"/>
<path d="M359.839 90.938L359.556 190.663L365.105 193.867L365.388 94.141L359.839 90.938Z" fill="#E0E0E0"/>
<path d="M365.391 94.14L365.388 94.141L365.105 193.867L369.929 191.063L370.196 96.915L365.391 94.14Z" fill="#F0F0F0"/>
<path d="M359.841 90.9471L359.839 90.9496L365.389 94.1536L365.39 94.1511L359.841 90.9471Z" fill="#E0E0E0"/>
<path opacity="0.2" d="M365.375 98.619L365.388 94.141L359.839 90.938L359.826 95.415L365.375 98.619Z" fill="black"/>
<path opacity="0.2" d="M365.375 98.619L369.267 96.378L365.391 94.14L365.388 94.141L365.375 98.619Z" fill="black"/>
<path d="M359.837 90.9435L359.836 90.9461L365.385 94.1501L365.386 94.1475L359.837 90.9435Z" fill="#E0E0E0"/>
<path d="M179.608 68.488L179.616 68.481C178.86 65.827 173.473 60.783 168.111 60.888C167.917 60.886 166.954 60.985 166.605 61.183L62.468 120.431C60.698 121.438 59.331 122.951 58.465 124.72C57.808 126.061 57.432 127.545 57.432 129.089V354.346C57.432 360.084 64.048 365.56 70.261 362.926C70.277 362.919 70.287 362.904 70.303 362.897C70.437 362.849 70.572 362.81 70.702 362.736L174.844 303.39C177.954 301.618 179.873 298.314 179.873 294.735V69.574C179.874 69.173 179.767 68.813 179.608 68.488Z" fill="#37474F"/>
<path d="M71.96 152.898C71.96 151.107 72.921 149.454 74.478 148.569L171.171 93.558C172.831 92.614 174.893 93.813 174.893 95.722V277.361C174.893 279.146 173.929 280.805 172.377 281.69L75.683 336.79C74.023 337.736 71.96 336.537 71.96 334.626V152.898Z" fill="#0C4B96"/>
<path opacity="0.2" d="M71.96 152.898C71.96 151.107 72.921 149.454 74.478 148.569L171.171 93.558C172.831 92.614 174.893 93.813 174.893 95.722V277.361C174.893 279.146 173.929 280.805 172.377 281.69L75.683 336.79C74.023 337.736 71.96 336.537 71.96 334.626V152.898Z" fill="black"/>
<path d="M57.433 129.089V354.346C57.433 360.084 64.049 365.56 70.262 362.926C70.278 362.919 70.288 362.904 70.304 362.897C68.73 363.467 66.98 362.333 66.98 360.572V135.315C66.98 133.319 67.595 131.421 68.662 129.814L58.466 124.72C57.809 126.061 57.433 127.544 57.433 129.089Z" fill="#263238"/>
<path d="M168.111 60.888C167.917 60.886 166.954 60.985 166.605 61.183L62.468 120.431C60.698 121.438 59.331 122.951 58.465 124.72L68.661 129.814C69.509 128.538 70.636 127.441 72.015 126.657L176.153 67.409C177.465 66.662 179.011 67.265 179.609 68.488L179.617 68.481C178.86 65.827 173.473 60.783 168.111 60.888Z" fill="#455A64"/>
<path d="M136.261 104.606C136.992 104.184 137.598 104.511 137.601 105.351C137.603 106.192 137.001 107.235 136.27 107.657L115.839 119.453C115.108 119.875 114.517 119.521 114.515 118.68C114.513 117.84 115.099 116.824 115.83 116.402L136.261 104.606Z" fill="#263238"/>
<path d="M110.583 119.432C111.314 119.01 111.905 119.346 111.907 120.186C111.909 121.026 111.323 122.061 110.592 122.483C109.861 122.905 109.254 122.56 109.252 121.719C109.249 120.879 109.852 119.854 110.583 119.432Z" fill="#263238"/>
<path d="M123.661 102.89C125.122 102.047 126.302 102.718 126.306 104.397C126.31 106.076 125.139 108.142 123.678 108.985C122.217 109.829 121.006 109.138 121.001 107.459C120.996 105.781 122.2 103.734 123.661 102.89Z" fill="#263238"/>
<path d="M123.669 314.952C126.645 313.234 129.047 314.602 129.056 318.022C129.066 321.442 126.68 325.649 123.704 327.367C120.728 329.085 118.261 327.679 118.252 324.26C118.242 320.84 120.692 316.67 123.669 314.952Z" fill="#263238"/>
<path d="M198.67 107.131L198.677 107.124C197.991 104.715 193.101 100.136 188.235 100.232C188.059 100.231 187.184 100.32 186.868 100.5L92.343 154.278C90.736 155.192 89.495 156.566 88.71 158.171C88.114 159.388 87.773 160.735 87.773 162.137V366.601C87.773 371.809 93.779 376.78 99.417 374.389C99.431 374.383 99.441 374.369 99.455 374.363C99.577 374.319 99.699 374.284 99.817 374.217L194.346 320.35C197.168 318.742 198.911 315.743 198.911 312.494V108.116C198.912 107.752 198.815 107.426 198.67 107.131Z" fill="#0C4B96"/>
<path opacity="0.2" d="M87.773 162.138V366.602C87.773 371.81 93.779 376.781 99.417 374.39C99.431 374.384 99.441 374.37 99.455 374.364C98.026 374.882 96.438 373.852 96.438 372.254V167.788C96.438 165.977 96.996 164.253 97.965 162.795L88.711 158.171C88.114 159.389 87.773 160.735 87.773 162.138Z" fill="white"/>
<path opacity="0.4" d="M188.235 100.232C188.059 100.231 187.184 100.32 186.868 100.5L92.343 154.278C90.736 155.192 89.495 156.566 88.71 158.171L97.964 162.795C98.734 161.637 99.757 160.641 101.008 159.93L195.533 106.151C196.724 105.474 198.127 106.02 198.67 107.13L198.677 107.123C197.991 104.715 193.101 100.136 188.235 100.232Z" fill="white"/>
<path opacity="0.3" d="M198.67 107.131L198.677 107.124C197.991 104.715 193.101 100.136 188.235 100.232C188.059 100.231 187.184 100.32 186.868 100.5L92.343 154.278C90.736 155.192 89.495 156.566 88.71 158.171C88.114 159.388 87.773 160.735 87.773 162.137V366.601C87.773 371.809 93.779 376.78 99.417 374.389C99.431 374.383 99.441 374.369 99.455 374.363C99.577 374.319 99.699 374.284 99.817 374.217L194.346 320.349C197.168 318.741 198.911 315.742 198.911 312.493V108.116C198.912 107.752 198.815 107.426 198.67 107.131Z" fill="white"/>
<path opacity="0.2" d="M100.551 181.527V367.295C100.551 368.084 101.403 368.579 102.088 368.188L192.314 316.773C192.5 316.667 192.683 316.546 192.858 316.411C193.544 315.889 194.082 315.191 194.416 314.396C194.669 313.79 194.798 313.151 194.798 312.494V127.303L100.551 181.527Z" fill="white"/>
<path opacity="0.4" d="M194.798 113.07C194.798 112.281 193.947 111.786 193.261 112.176L103.042 163.505C102.39 163.875 101.834 164.402 101.39 165.071C100.841 165.898 100.55 166.838 100.55 167.788V181.526L194.797 127.302V113.07H194.798Z" fill="white"/>
<path d="M182.195 141.818C183.403 141.121 184.385 141.68 184.389 143.068L184.529 192.484C184.533 193.872 183.558 195.561 182.35 196.259L114.507 235.428C113.292 236.129 112.311 235.57 112.307 234.182L112.167 184.766C112.163 183.378 113.138 181.689 114.353 180.987L182.195 141.818Z" fill="#0C4B96"/>
<path d="M172.098 191.555C173.024 191.02 173.859 190.954 174.491 191.254C173.777 192.414 173.327 193.739 173.331 194.939C173.335 196.139 173.79 196.941 174.508 197.274C173.88 198.302 173.047 199.198 172.121 199.733C170.158 200.866 168.564 199.95 168.557 197.695C168.551 195.439 170.135 192.689 172.098 191.555Z" fill="#455A64"/>
<path d="M174.491 191.254C175.209 191.588 175.665 192.39 175.668 193.59C175.671 194.79 175.221 196.115 174.508 197.275C173.79 196.941 173.334 196.139 173.331 194.94C173.328 193.741 173.778 192.415 174.491 191.254Z" fill="#37474F"/>
<path d="M176.872 188.799C178.835 187.666 180.436 188.578 180.442 190.834C180.448 193.09 178.858 195.844 176.895 196.978C175.976 197.509 175.141 197.575 174.509 197.275C175.223 196.115 175.672 194.79 175.669 193.59C175.666 192.39 175.209 191.588 174.492 191.254C175.12 190.227 175.952 189.33 176.872 188.799Z" fill="#455A64"/>
<path d="M184.405 152.998L184.434 163.063L112.224 204.753L112.196 194.689L184.405 152.998Z" fill="#455A64"/>
<path d="M142.346 193.831L142.355 196.909L117.005 211.545L116.996 208.467L142.346 193.831Z" fill="#455A64"/>
<path d="M141.367 200.94L141.376 204.018L129.452 210.902L129.444 207.824L141.367 200.94Z" fill="#455A64"/>
<path d="M126.22 209.686L126.229 212.764L117.023 218.078L117.015 215L126.22 209.686Z" fill="#455A64"/>
<path d="M153.763 193.783L153.772 196.862L144.567 202.176L144.558 199.098L153.763 193.783Z" fill="#455A64"/>
<path d="M150.613 220.296C159.543 215.14 166.798 219.284 166.827 229.536C166.856 239.797 159.649 252.29 150.719 257.446C141.789 262.602 134.526 258.463 134.497 248.202C134.467 237.949 141.683 225.451 150.613 220.296Z" fill="white"/>
<path d="M156.272 229.379C156.502 229.247 156.731 229.214 156.905 229.313L157.543 229.677C157.89 229.875 157.892 230.532 157.547 231.13L149.256 245.481C149.007 245.921 148.669 246.274 148.307 246.483C147.953 246.688 147.614 246.725 147.364 246.573L143.777 244.529C143.422 244.336 143.42 243.688 143.773 243.076L144.399 241.992C144.575 241.686 144.805 241.452 145.033 241.32C145.262 241.188 145.489 241.158 145.663 241.262L148.297 242.763L155.641 230.043C155.813 229.744 156.043 229.512 156.272 229.379Z" fill="#0C4B96"/>
<g opacity="0.7">
<path d="M133.867 285.995C135.062 285.305 136.009 285.265 136.615 285.821L135.319 287.907C134.956 287.595 134.529 287.54 133.977 287.858C133.117 288.355 132.541 289.367 132.544 290.446C132.547 291.525 133.127 291.87 133.987 291.374C134.539 291.056 134.964 290.507 135.324 289.778L136.628 290.363C136.027 291.617 135.083 292.668 133.888 293.358C131.918 294.495 130.47 293.813 130.463 291.647C130.457 289.49 131.897 287.132 133.867 285.995Z" fill="white"/>
<path d="M128.405 277.76C130.112 276.774 131.198 277.175 131.203 278.805C131.208 280.435 130.127 282.086 128.42 283.072L127.54 283.58L127.545 285.308L125.477 286.502L125.457 279.463L128.405 277.76ZM128.283 281.314C128.854 280.984 129.123 280.52 129.121 280.007C129.119 279.494 128.85 279.34 128.278 279.67L127.529 280.102L127.534 281.747L128.283 281.314Z" fill="white"/>
<path d="M140.249 282.31C141.444 281.62 142.391 281.58 142.997 282.136L141.701 284.222C141.338 283.91 140.911 283.855 140.359 284.173C139.499 284.67 138.923 285.682 138.926 286.761C138.929 287.84 139.509 288.185 140.369 287.689C140.921 287.371 141.347 286.822 141.706 286.093L143.01 286.678C142.408 287.932 141.464 288.983 140.269 289.673C138.299 290.81 136.85 290.128 136.844 287.962C136.839 285.806 138.279 283.448 140.249 282.31Z" fill="white"/>
<path d="M135.607 273.602L138.306 279.094L136.172 280.326L135.755 279.335L133.431 280.677L133.021 282.146L130.92 283.359L133.579 274.773L135.607 273.602ZM133.997 278.642L135.185 277.956L134.583 276.528L133.997 278.642Z" fill="white"/>
<path d="M148.574 277.67L148.579 279.458L145.632 281.16L145.634 281.982L148.221 280.489L148.226 282.201L145.639 283.695L145.641 284.615L148.701 282.849L148.706 284.644L143.611 287.586L143.591 280.547L148.574 277.67Z" fill="white"/>
<path d="M144.182 268.651L141.884 274.467L141.891 277.025L139.823 278.219L139.815 275.631L137.492 272.514L139.671 271.255L140.932 272.968L142.186 269.803L144.182 268.651Z" fill="white"/>
<path d="M152.047 275.498C152.868 275.024 153.722 274.735 154.36 274.782L153.741 276.862C153.136 276.856 152.571 277.009 152.039 277.316C151.435 277.665 151.239 277.982 151.239 278.224C151.241 279.069 154.627 276.411 154.635 278.999C154.639 280.289 153.69 281.925 151.792 283.021C150.768 283.612 149.729 283.917 149.118 283.84L149.776 281.729C150.355 281.788 151.13 281.589 151.8 281.203C152.391 280.862 152.594 280.601 152.593 280.36C152.591 279.477 149.211 282.146 149.204 279.521C149.201 278.215 150.15 276.594 152.047 275.498Z" fill="white"/>
<path d="M151.779 264.265L151.818 271.293L149.934 272.381L149.905 269.186L148.586 272.524L147.674 273.051L146.34 271.35L146.349 274.451L144.465 275.539L144.445 268.5L146.145 267.518L148.145 270.119L150.078 265.247L151.779 264.265Z" fill="white"/>
<path d="M157.799 272.178C158.62 271.704 159.474 271.415 160.112 271.462L159.493 273.542C158.888 273.536 158.323 273.689 157.791 273.996C157.187 274.345 156.99 274.662 156.991 274.904C156.993 275.749 160.379 273.091 160.387 275.679C160.391 276.969 159.442 278.605 157.538 279.704C156.52 280.292 155.482 280.596 154.87 280.519L155.528 278.408C156.107 278.467 156.882 278.268 157.552 277.882C158.143 277.541 158.346 277.28 158.345 277.038C158.342 276.155 154.963 278.824 154.956 276.199C154.952 274.894 155.901 273.273 157.799 272.178Z" fill="white"/>
<path d="M157.773 260.804L157.778 262.592L154.83 264.294L154.832 265.124L157.426 263.627L157.431 265.332L154.837 266.829L154.84 267.757L157.906 265.987L157.911 267.775L152.816 270.717L152.796 263.678L157.773 260.804Z" fill="white"/>
<path d="M164.726 256.79L164.746 263.829L163.046 264.811L160.712 262.954L160.721 266.153L158.706 267.317L158.686 260.277L160.386 259.296L162.72 261.153L162.711 257.954L164.726 256.79Z" fill="white"/>
<path d="M170.918 253.215L170.923 255.056L169.124 256.095L169.139 261.293L167.077 262.483L167.062 257.285L165.27 258.32L165.265 256.479L170.918 253.215Z" fill="white"/>
<path d="M120.65 293.626C121.471 293.152 122.318 292.867 122.956 292.914L122.344 294.99C121.739 294.984 121.167 295.14 120.635 295.447C120.031 295.796 119.841 296.109 119.842 296.351C119.844 297.196 123.224 294.542 123.231 297.13C123.235 298.42 122.286 300.056 120.388 301.152C119.364 301.743 118.332 302.044 117.714 301.97L118.379 299.856C118.958 299.915 119.727 299.72 120.403 299.33C120.987 298.993 121.197 298.728 121.196 298.487C121.194 297.604 117.808 300.277 117.8 297.651C117.797 296.346 118.746 294.725 120.65 293.626Z" fill="white"/>
<path d="M129.751 288.538L129.762 292.408C129.768 294.52 128.668 296.372 126.79 297.456C124.906 298.544 123.799 297.966 123.793 295.854L123.782 291.984L125.85 290.79L125.861 294.585C125.864 295.664 126.22 295.859 126.797 295.525C127.375 295.191 127.735 294.583 127.732 293.504L127.721 289.709L129.751 288.538Z" fill="white"/>
<path d="M165.967 267.628L165.972 269.416L163.057 271.099L163.06 272.306L165.614 270.832L165.619 272.62L163.065 274.094L163.072 276.35L161.01 277.54L160.99 270.501L165.967 267.628Z" fill="white"/>
<path d="M172.539 263.834L172.55 267.704C172.556 269.816 171.456 271.668 169.579 272.752C167.695 273.84 166.588 273.262 166.582 271.15L166.571 267.28L168.639 266.086L168.65 269.881C168.653 270.96 169.015 271.151 169.593 270.818C170.164 270.488 170.524 269.88 170.521 268.801L170.51 265.006L172.539 263.834Z" fill="white"/>
<path d="M175.553 262.094L175.568 267.292L178.332 265.696L178.337 267.537L173.511 270.323L173.491 263.284L175.553 262.094Z" fill="white"/>
</g>
<path opacity="0.3" d="M111.327 321.252V350.711C111.327 351.504 112.186 351.998 112.871 351.601L182.806 311.049C184.392 310.129 185.369 308.435 185.369 306.601V277.35C185.369 276.558 184.512 276.064 183.827 276.459L113.9 316.799C112.307 317.716 111.327 319.414 111.327 321.252Z" fill="white"/>
<path d="M361.529 104.251C357.868 114.443 357.288 125.875 359.9 136.385L341.256 141C337.736 126.738 338.504 111.606 343.448 97.774L361.529 104.251Z" fill="#0C4B96"/>
<path opacity="0.2" d="M353.673 136.17L346.68 137.692C346.408 136.494 345.769 135.488 344.856 134.809C343.981 134.128 342.86 133.768 341.708 133.939C340.249 124.258 340.752 114.328 343.183 104.844C344.312 105.131 345.463 104.886 346.403 104.297C347.38 103.714 348.117 102.778 348.509 101.614L355.312 103.836C354.96 104.879 355.157 105.983 355.683 106.858C356.244 107.747 357.161 108.417 358.289 108.704C356.375 116.15 355.975 124.025 357.127 131.627C355.975 131.798 354.995 132.372 354.347 133.2C353.737 134.018 353.428 135.096 353.673 136.17Z" fill="white"/>
<path opacity="0.2" d="M353.673 136.17L346.68 137.692C346.408 136.494 345.769 135.488 344.856 134.809C343.981 134.128 342.86 133.768 341.708 133.939C340.249 124.258 340.752 114.328 343.183 104.844C344.312 105.131 345.463 104.886 346.403 104.297C347.38 103.714 348.117 102.778 348.509 101.614L355.312 103.836C354.96 104.879 355.157 105.983 355.683 106.858C356.244 107.747 357.161 108.417 358.289 108.704C356.375 116.15 355.975 124.025 357.127 131.627C355.975 131.798 354.995 132.372 354.347 133.2C353.737 134.018 353.428 135.096 353.673 136.17Z" fill="white"/>
<path d="M349.292 114.191C350.815 114.4 352.083 115.186 352.994 116.234C353.876 117.285 354.4 118.595 354.311 119.993C354.258 121.393 353.604 122.644 352.621 123.6C351.609 124.551 350.268 125.204 348.731 125.258C347.205 125.312 345.772 124.726 344.775 123.668C343.749 122.616 343.163 121.093 343.229 119.431C343.331 117.771 344.068 116.315 345.195 115.372C346.294 114.421 347.78 113.983 349.292 114.191Z" fill="#0C4B96"/>
<path d="M348.903 128.291C350.361 128.186 351.628 129.229 351.801 130.614C351.958 132.001 350.992 133.313 349.535 133.561C348.101 133.805 346.705 132.777 346.53 131.25C346.341 129.725 347.437 128.397 348.903 128.291Z" fill="#0C4B96"/>
<path d="M349.77 111.192C351.21 111.444 352.576 110.534 352.889 109.174C353.186 107.81 352.357 106.407 350.932 106.013C349.53 105.625 348.037 106.506 347.709 108.008C347.366 109.506 348.322 110.938 349.77 111.192Z" fill="#0C4B96"/>
<path d="M349.402 80.533C340.498 86.699 333.382 95.664 329.399 105.734L311.545 98.653C316.97 85.002 326.39 73.134 338.453 64.752L349.402 80.533Z" fill="#0C4B96"/>
<path opacity="0.2" d="M324.457 101.94L317.882 99.114C318.357 97.981 318.422 96.791 318.074 95.708C317.758 94.645 317.055 93.701 316.018 93.171C320.458 84.445 326.639 76.658 334.129 70.353C334.881 71.242 335.959 71.713 337.067 71.779C338.201 71.873 339.345 71.539 340.34 70.82L344.585 76.582C343.692 77.226 343.211 78.239 343.131 79.257C343.07 80.307 343.427 81.385 344.179 82.274C338.293 87.221 333.391 93.396 329.91 100.251C328.873 99.721 327.742 99.618 326.734 99.915C325.759 100.226 324.881 100.924 324.457 101.94Z" fill="white"/>
<path opacity="0.2" d="M324.457 101.94L317.882 99.114C318.357 97.981 318.422 96.791 318.074 95.708C317.758 94.645 317.055 93.701 316.018 93.171C320.458 84.445 326.639 76.658 334.129 70.353C334.881 71.242 335.959 71.713 337.067 71.779C338.201 71.873 339.345 71.539 340.34 70.82L344.585 76.582C343.692 77.226 343.211 78.239 343.131 79.257C343.07 80.307 343.427 81.385 344.179 82.274C338.293 87.221 333.391 93.396 329.91 100.251C328.873 99.721 327.742 99.618 326.734 99.915C325.759 100.226 324.881 100.924 324.457 101.94Z" fill="white"/>
<path d="M333.667 81.509C334.785 82.564 335.359 83.941 335.492 85.323C335.599 86.691 335.264 88.061 334.379 89.148C333.522 90.257 332.263 90.894 330.907 91.1C329.531 91.285 328.059 91.038 326.778 90.189C325.505 89.346 324.679 88.036 324.483 86.595C324.26 85.143 324.668 83.563 325.688 82.249C326.736 80.957 328.182 80.202 329.647 80.089C331.093 79.953 332.556 80.46 333.667 81.509Z" fill="#0C4B96"/>
<path d="M325.155 92.756C326.403 93.518 326.827 95.103 326.163 96.331C325.485 97.551 323.936 98.057 322.606 97.411C321.297 96.776 320.758 95.128 321.504 93.784C322.236 92.433 323.9 91.99 325.155 92.756Z" fill="#0C4B96"/>
<path d="M335.799 79.346C336.824 80.388 338.464 80.442 339.51 79.517C340.544 78.58 340.686 76.956 339.755 75.808C338.84 74.677 337.113 74.527 335.973 75.558C334.822 76.577 334.768 78.298 335.799 79.346Z" fill="#0C4B96"/>
<path d="M255.838 74.174C243.717 78.535 232.794 86.661 225.132 97.016L206.779 83.411C217.194 69.382 231.654 58.625 248.085 52.684L255.838 74.174Z" fill="#0C4B96"/>
<path opacity="0.2" d="M220.614 91.142L213.922 85.881C214.815 84.724 215.254 83.377 215.185 82.025C215.147 80.706 214.628 79.406 213.599 78.479C221.373 69.809 230.862 62.751 241.401 57.798C241.993 59.05 243.089 59.921 244.341 60.337C245.615 60.792 247.033 60.758 248.397 60.236L251.512 68.159C250.288 68.626 249.426 69.643 249.021 70.789C248.63 71.977 248.71 73.325 249.301 74.577C241.022 78.461 233.497 84.058 227.397 90.871C226.368 89.944 225.099 89.48 223.849 89.513C222.636 89.57 221.413 90.104 220.614 91.142Z" fill="white"/>
<path opacity="0.2" d="M220.614 91.142L213.922 85.881C214.815 84.724 215.254 83.377 215.185 82.025C215.147 80.706 214.628 79.406 213.599 78.479C221.373 69.809 230.862 62.751 241.401 57.798C241.993 59.05 243.089 59.921 244.341 60.337C245.615 60.792 247.033 60.758 248.397 60.236L251.512 68.159C250.288 68.626 249.426 69.643 249.021 70.789C248.63 71.977 248.71 73.325 249.301 74.577C241.022 78.461 233.497 84.058 227.397 90.871C226.368 89.944 225.099 89.48 223.849 89.513C222.636 89.57 221.413 90.104 220.614 91.142Z" fill="white"/>
<path d="M237.454 70.478C238.416 72.033 238.655 73.791 238.383 75.421C238.087 77.026 237.282 78.499 235.932 79.476C234.608 80.488 232.965 80.835 231.344 80.657C229.705 80.448 228.09 79.714 226.877 78.346C225.672 76.987 225.124 75.228 225.339 73.513C225.527 71.775 226.48 70.085 228.054 68.887C229.654 67.723 231.547 67.297 233.266 67.617C234.973 67.903 236.499 68.933 237.454 70.478Z" fill="#0C4B96"/>
<path d="M224.228 80.8C225.429 82.058 225.432 84.01 224.292 85.218C223.139 86.413 221.203 86.52 219.873 85.371C218.563 84.241 218.449 82.182 219.717 80.865C220.972 79.535 223.02 79.535 224.228 80.8Z" fill="#0C4B96"/>
<path d="M240.567 68.645C241.426 70.157 243.295 70.721 244.78 69.977C246.255 69.217 246.915 67.393 246.197 65.789C245.491 64.21 243.552 63.508 241.927 64.344C240.292 65.163 239.703 67.125 240.567 68.645Z" fill="#0C4B96"/>
<path d="M318.445 67.695C311.741 67.054 304.756 67.937 298.239 70.188C291.719 72.432 285.675 76.043 280.791 80.679L262.766 61.665C270.516 54.322 279.772 48.844 289.698 45.419C299.625 41.998 310.29 40.607 320.919 41.612L318.445 67.695Z" fill="#0C4B96"/>
<path opacity="0.2" d="M276.819 73.207L270.407 65.845C271.688 64.7 272.53 63.281 272.797 61.714C273.103 60.212 272.872 58.609 271.952 57.314C277.64 53.206 283.938 50.07 290.501 47.75C297.099 45.532 303.992 44.12 311.003 43.849C311.076 45.436 311.883 46.84 313.049 47.835C314.225 48.905 315.763 49.503 317.477 49.615L316.966 59.364C315.51 59.265 314.167 59.957 313.262 60.965C312.349 62.049 311.868 63.509 311.941 65.096C307.031 65.273 302.13 66.291 297.433 67.856C292.77 69.519 288.283 71.738 284.307 74.625C283.387 73.33 282.108 72.477 280.721 72.186C279.389 71.949 277.904 72.232 276.819 73.207Z" fill="white"/>
<path opacity="0.2" d="M276.819 73.207L270.407 65.845C271.688 64.7 272.53 63.281 272.797 61.714C273.103 60.212 272.872 58.609 271.952 57.314C277.64 53.206 283.938 50.07 290.501 47.75C297.099 45.532 303.992 44.12 311.003 43.849C311.076 45.436 311.883 46.84 313.049 47.835C314.225 48.905 315.763 49.503 317.477 49.615L316.966 59.364C315.51 59.265 314.167 59.957 313.262 60.965C312.349 62.049 311.868 63.509 311.941 65.096C307.031 65.273 302.13 66.291 297.433 67.856C292.77 69.519 288.283 71.738 284.307 74.625C283.387 73.33 282.108 72.477 280.721 72.186C279.389 71.949 277.904 72.232 276.819 73.207Z" fill="white"/>
<path d="M301.258 55.789C301.694 57.842 301.276 59.818 300.409 61.483C299.972 62.312 299.402 63.008 298.739 63.607C298.079 64.219 297.312 64.684 296.434 64.958C295.574 65.283 294.684 65.39 293.786 65.314C292.895 65.251 292.018 65.054 291.162 64.671C289.453 63.894 287.906 62.596 286.984 60.71C286.07 58.842 286.005 56.713 286.827 54.885C287.233 53.969 287.834 53.079 288.629 52.356C289.428 51.646 290.402 51.055 291.5 50.648C292.615 50.292 293.746 50.157 294.813 50.223C295.885 50.303 296.906 50.634 297.791 51.104C299.566 52.038 300.826 53.755 301.258 55.789Z" fill="#0C4B96"/>
<path d="M283.324 62.645C283.819 63.514 283.92 64.497 283.709 65.368C283.498 66.245 283.008 67.064 282.212 67.563C280.643 68.562 278.48 68.206 277.259 66.593C276.064 65.019 276.453 62.65 278.256 61.497C279.153 60.932 280.168 60.742 281.093 60.966C282.022 61.192 282.829 61.776 283.324 62.645Z" fill="#0C4B96"/>
<path d="M305.334 55.056C305.48 56.045 306.006 56.881 306.71 57.437C307.417 57.998 308.307 58.341 309.242 58.243C311.093 58.063 312.577 56.449 312.545 54.426C312.516 52.45 310.749 50.824 308.619 51.027C307.564 51.135 306.648 51.611 306.057 52.357C305.464 53.109 305.189 54.067 305.334 55.056Z" fill="#0C4B96"/>
<path d="M245.935 240.647C244.354 243.595 244.615 247.753 246.553 250.48L240.696 254.542C237.226 249.462 236.809 242.824 239.616 237.35L245.935 240.647Z" fill="#0C4B96"/>
<path opacity="0.2" d="M244.394 251.251L242.132 252.642C241.637 251.843 240.687 251.422 239.897 251.761C238.255 248.136 237.996 244.011 239.172 240.209C239.998 240.446 240.887 239.91 241.279 239.055L243.698 240.152C243.371 240.872 243.862 241.684 244.699 241.923C243.943 244.317 244.117 247.088 245.167 249.368C244.365 249.711 243.979 250.578 244.394 251.251Z" fill="white"/>
<path opacity="0.2" d="M244.394 251.251L242.132 252.642C241.637 251.843 240.687 251.422 239.897 251.761C238.255 248.136 237.996 244.011 239.172 240.209C239.998 240.446 240.887 239.91 241.279 239.055L243.698 240.152C243.371 240.872 243.862 241.684 244.699 241.923C243.943 244.317 244.117 247.088 245.167 249.368C244.365 249.711 243.979 250.578 244.394 251.251Z" fill="white"/>
<path d="M241.395 243.814C242.523 243.944 243.363 244.806 243.418 245.741C243.48 246.676 242.755 247.636 241.652 247.906C240.547 248.179 239.4 247.336 239.308 245.999C239.233 244.661 240.265 243.681 241.395 243.814Z" fill="#0C4B96"/>
<path d="M241.938 248.997C242.458 248.845 242.994 249.108 243.178 249.569C243.352 250.033 243.146 250.585 242.652 250.831C242.173 251.071 241.553 250.84 241.343 250.286C241.123 249.734 241.413 249.15 241.938 248.997Z" fill="#0C4B96"/>
<path d="M241.542 242.697C242.077 242.782 242.575 242.454 242.701 241.975C242.815 241.493 242.542 240.971 242.021 240.789C241.516 240.611 240.929 240.917 240.79 241.493C240.642 242.067 241.002 242.61 241.542 242.697Z" fill="#0C4B96"/>
<path d="M242.666 216.552C247.318 220.969 251.095 226.274 253.746 232.116L245.735 235.75C243.558 230.95 240.433 226.56 236.61 222.932L242.666 216.552Z" fill="#0C4B96"/>
<path opacity="0.2" d="M250.869 232.479L247.909 233.888C247.464 232.952 246.306 232.622 245.365 233.129C243.642 229.869 241.482 226.834 238.965 224.139C239.753 223.416 239.82 222.214 239.081 221.487L241.381 219.151C242.164 219.92 243.405 219.989 244.189 219.269C247.135 222.426 249.658 225.969 251.676 229.787C250.739 230.293 250.398 231.488 250.869 232.479Z" fill="white"/>
<path opacity="0.2" d="M250.869 232.479L247.909 233.888C247.464 232.952 246.306 232.622 245.365 233.129C243.642 229.869 241.482 226.834 238.965 224.139C239.753 223.416 239.82 222.214 239.081 221.487L241.381 219.151C242.164 219.92 243.405 219.989 244.189 219.269C247.135 222.426 249.658 225.969 251.676 229.787C250.739 230.293 250.398 231.488 250.869 232.479Z" fill="white"/>
<path d="M243.84 224.324C244.928 223.436 246.573 223.66 247.443 224.877C248.308 226.097 247.981 227.725 246.786 228.462C245.592 229.199 244.062 228.894 243.303 227.824C242.54 226.757 242.753 225.211 243.84 224.324Z" fill="#0C4B96"/>
<path d="M247.51 229.65C248.088 229.306 248.843 229.509 249.177 230.116C249.515 230.721 249.283 231.471 248.689 231.776C248.089 232.084 247.367 231.862 247.05 231.294C246.736 230.725 246.934 229.993 247.51 229.65Z" fill="#0C4B96"/>
<path d="M242.955 223.251C243.47 222.818 243.524 222.037 243.06 221.523C242.599 221.005 241.814 220.979 241.331 221.441C240.843 221.907 240.818 222.662 241.25 223.147C241.686 223.63 242.442 223.683 242.955 223.251Z" fill="#0C4B96"/>
<path d="M262.452 194.295C258.934 198.705 257 204.516 257.175 210.155L246.794 210.457C246.568 202.299 249.253 194.23 254.322 187.834L262.452 194.295Z" fill="#0C4B96"/>
<path opacity="0.2" d="M253.913 209.338L250.043 209.318C250.047 207.991 249.129 206.821 247.881 206.698C248.329 201.31 250.072 196.074 252.94 191.492C254.013 192.142 255.449 191.755 256.241 190.69L259.351 192.993C258.64 193.951 259.007 195.306 260.089 195.961C257.938 199.387 256.612 203.371 256.282 207.402C255.024 207.28 253.918 208.145 253.913 209.338Z" fill="white"/>
<path opacity="0.2" d="M253.913 209.338L250.043 209.318C250.047 207.991 249.129 206.821 247.881 206.698C248.329 201.31 250.072 196.074 252.94 191.492C254.013 192.142 255.449 191.755 256.241 190.69L259.351 192.993C258.64 193.951 259.007 195.306 260.089 195.961C257.938 199.387 256.612 203.371 256.282 207.402C255.024 207.28 253.918 208.145 253.913 209.338Z" fill="white"/>
<path d="M254.594 197.332C256.093 198.035 256.813 199.684 256.348 201.071C255.89 202.46 254.325 203.349 252.704 203.014C251.08 202.68 250.077 200.936 250.656 199.177C251.246 197.422 253.094 196.627 254.594 197.332Z" fill="#0C4B96"/>
<path d="M252.387 204.626C253.165 204.764 253.692 205.473 253.608 206.215C253.514 206.956 252.846 207.523 252.047 207.475C251.263 207.428 250.653 206.709 250.757 205.877C250.852 205.044 251.604 204.487 252.387 204.626Z" fill="#0C4B96"/>
<path d="M255.306 195.853C256.012 196.209 256.858 195.957 257.236 195.312C257.604 194.662 257.409 193.808 256.741 193.368C256.086 192.936 255.166 193.146 254.751 193.875C254.328 194.598 254.596 195.494 255.306 195.853Z" fill="#0C4B96"/>
<path d="M334.322 167.641C333.068 180.71 327.206 193.066 317.878 202.305L306.129 190.409C312.61 184.031 316.837 175.121 317.677 166.067L334.322 167.641Z" fill="#0C4B96"/>
<path opacity="0.2" d="M315.361 197.367L310.835 193.086C311.494 192.406 311.735 191.465 311.636 190.592C311.51 189.69 311.022 188.834 310.232 188.198C314.337 183.135 317.236 177.025 318.56 170.643C319.552 170.853 320.524 170.689 321.302 170.216C322.041 169.741 322.618 168.959 322.728 168.018L328.907 168.815C328.78 169.888 328.997 170.909 329.542 171.748C330.049 172.576 330.853 173.217 331.845 173.426C330.067 181.941 326.262 189.962 320.792 196.725C320.002 196.089 318.997 195.872 318.035 196.003C317.04 196.112 316.112 196.59 315.361 197.367Z" fill="white"/>
<path opacity="0.2" d="M315.361 197.367L310.835 193.086C311.494 192.406 311.735 191.465 311.636 190.592C311.51 189.69 311.022 188.834 310.232 188.198C314.337 183.135 317.236 177.025 318.56 170.643C319.552 170.853 320.524 170.689 321.302 170.216C322.041 169.741 322.618 168.959 322.728 168.018L328.907 168.815C328.78 169.888 328.997 170.909 329.542 171.748C330.049 172.576 330.853 173.217 331.845 173.426C330.067 181.941 326.262 189.962 320.792 196.725C320.002 196.089 318.997 195.872 318.035 196.003C317.04 196.112 316.112 196.59 315.361 197.367Z" fill="white"/>
<path d="M323.415 178.362C324.667 178.807 325.642 179.744 326.099 180.93C326.585 182.122 326.55 183.56 325.937 184.894C325.291 186.213 324.2 187.15 322.969 187.527C321.761 187.924 320.418 187.761 319.282 187.073C318.137 186.38 317.397 185.317 317.018 184.174C316.668 183.04 316.679 181.829 317.209 180.753C317.706 179.662 318.638 178.887 319.737 178.441C320.863 178.013 322.153 177.914 323.415 178.362Z" fill="#0C4B96"/>
<path d="M317.855 189.3C318.92 190.011 319.175 191.495 318.358 192.57C317.554 193.654 316.044 193.811 315.08 192.994C314.096 192.162 313.95 190.758 314.665 189.791C315.395 188.832 316.797 188.594 317.855 189.3Z" fill="#0C4B96"/>
<path d="M324.236 175.85C325.46 176.225 326.771 175.484 327.087 174.172C327.418 172.864 326.585 171.595 325.341 171.365C324.074 171.13 322.895 171.904 322.598 173.07C322.317 174.24 323.02 175.477 324.236 175.85Z" fill="#0C4B96"/>
<path d="M372.341 179.968C361.682 185.556 352.493 194.184 346.245 204.471L328.269 193.537C336.548 179.942 348.471 168.747 362.56 161.34L372.341 179.968Z" fill="#0C4B96"/>
<path opacity="0.2" d="M341.61 199.454L335.02 195.207C335.736 194.075 336.015 192.803 335.83 191.576C335.673 190.374 335.077 189.233 334.049 188.477C340.331 179.897 348.188 172.52 357.146 166.79C357.836 167.863 358.936 168.53 360.126 168.762C361.339 169.025 362.626 168.826 363.801 168.182L367.625 175.026C366.562 175.607 365.893 176.641 365.658 177.74C365.439 178.873 365.669 180.097 366.359 181.171C359.185 185.754 352.847 191.706 347.821 198.577C346.793 197.821 345.586 197.515 344.441 197.662C343.331 197.827 342.257 198.429 341.61 199.454Z" fill="white"/>
<path opacity="0.2" d="M341.61 199.454L335.02 195.207C335.736 194.075 336.015 192.803 335.83 191.576C335.673 190.374 335.077 189.233 334.049 188.477C340.331 179.897 348.188 172.52 357.146 166.79C357.836 167.863 358.936 168.53 360.126 168.762C361.339 169.025 362.626 168.826 363.801 168.182L367.625 175.026C366.562 175.607 365.893 176.641 365.658 177.74C365.439 178.873 365.669 180.097 366.359 181.171C359.185 185.754 352.847 191.706 347.821 198.577C346.793 197.821 345.586 197.515 344.441 197.662C343.331 197.827 342.257 198.429 341.61 199.454Z" fill="white"/>
<path d="M355.031 178.811C356.083 180.125 356.497 181.709 356.422 183.231C356.324 184.734 355.737 186.174 354.598 187.219C353.484 188.29 352.01 188.785 350.503 188.789C348.98 188.768 347.425 188.255 346.18 187.123C344.942 185.998 344.266 184.444 344.286 182.855C344.281 181.249 344.971 179.611 346.278 178.358C347.611 177.131 349.289 176.546 350.891 176.653C352.478 176.732 353.986 177.504 355.031 178.811Z" fill="#0C4B96"/>
<path d="M343.991 189.628C345.213 190.664 345.4 192.455 344.465 193.673C343.517 194.88 341.748 195.155 340.427 194.222C339.124 193.303 338.833 191.431 339.868 190.111C340.891 188.781 342.763 188.586 343.991 189.628Z" fill="#0C4B96"/>
<path d="M357.67 176.785C358.627 178.07 360.403 178.369 361.677 177.513C362.941 176.643 363.327 174.895 362.479 173.517C361.644 172.159 359.793 171.751 358.411 172.7C357.019 173.637 356.707 175.494 357.67 176.785Z" fill="#0C4B96"/>
<path d="M381.126 123.683C390.364 137.63 394.458 154.571 392.609 171.197L371.445 168.813C372.762 157.31 369.812 145.101 363.387 135.469L381.126 123.683Z" fill="#0C4B96"/>
<path opacity="0.2" d="M386.162 168.319L378.25 167.7C378.359 166.498 377.844 165.373 377.046 164.588C376.199 163.796 375.03 163.338 373.739 163.341C373.765 159.19 373.214 155.028 372.269 150.969C371.256 146.927 369.845 142.973 367.927 139.291C369.077 138.703 369.908 137.763 370.3 136.671C370.651 135.608 370.596 134.372 369.95 133.353L376.706 129.189C377.441 130.353 378.474 131.19 379.686 131.584C380.852 131.997 382.161 131.988 383.311 131.4C385.865 136.321 387.744 141.552 389.075 146.908C390.337 152.281 391.053 157.793 391.028 163.337C389.737 163.34 388.567 163.929 387.719 164.829C386.821 165.732 386.284 166.948 386.162 168.319Z" fill="white"/>
<path opacity="0.2" d="M386.162 168.319L378.25 167.7C378.359 166.498 377.844 165.373 377.046 164.588C376.199 163.796 375.03 163.338 373.739 163.341C373.765 159.19 373.214 155.028 372.269 150.969C371.256 146.927 369.845 142.973 367.927 139.291C369.077 138.703 369.908 137.763 370.3 136.671C370.651 135.608 370.596 134.372 369.95 133.353L376.706 129.189C377.441 130.353 378.474 131.19 379.686 131.584C380.852 131.997 382.161 131.988 383.311 131.4C385.865 136.321 387.744 141.552 389.075 146.908C390.337 152.281 391.053 157.793 391.028 163.337C389.737 163.34 388.567 163.929 387.719 164.829C386.821 165.732 386.284 166.948 386.162 168.319Z" fill="white"/>
<path d="M378.921 143.043C380.517 142.481 382.234 142.627 383.637 143.436C384.34 143.838 385 144.39 385.515 145.079C386.021 145.77 386.416 146.589 386.653 147.492C386.855 148.404 386.877 149.312 386.743 150.159C386.599 151.007 386.265 151.8 385.823 152.478C384.945 153.838 383.484 154.753 381.807 154.981C380.117 155.211 378.534 154.752 377.243 153.923C376.6 153.506 376.068 152.987 375.628 152.394C375.178 151.802 374.855 151.13 374.693 150.382C374.496 149.643 374.477 148.897 374.606 148.165C374.727 147.436 374.963 146.731 375.344 146.067C376.113 144.742 377.312 143.609 378.921 143.043Z" fill="#0C4B96"/>
<path d="M382.175 158.329C383.799 158.18 385.24 159.446 385.292 161.165C385.364 162.882 383.993 164.248 382.383 164.21C380.742 164.173 379.474 162.9 379.408 161.369C379.363 159.836 380.562 158.477 382.175 158.329Z" fill="#0C4B96"/>
<path d="M377.721 139.897C379.234 139.288 379.937 137.503 379.199 135.95C378.479 134.389 376.636 133.801 375.221 134.569C373.778 135.352 373.231 137.063 373.872 138.456C374.531 139.84 376.218 140.501 377.721 139.897Z" fill="#0C4B96"/>
<path d="M384.399 111.091C371.149 105.862 358.884 98.263 348.314 88.733L361.508 74.19C370.314 82.133 380.593 88.502 391.636 92.857L384.399 111.091Z" fill="#0C4B96"/>
<path opacity="0.2" d="M353.886 85.434L358.709 79.932C360.456 81.457 363.13 81.119 364.617 79.253C371.07 84.448 378.176 88.851 385.705 92.319C384.685 94.474 385.566 97.014 387.711 97.901L384.898 104.648C382.636 103.713 380.013 104.618 378.997 106.765C370.279 102.747 362.069 97.66 354.595 91.646C356.076 89.788 355.728 87.043 353.886 85.434Z" fill="white"/>
<path opacity="0.2" d="M353.886 85.434L358.709 79.932C360.456 81.457 363.13 81.119 364.617 79.253C371.07 84.448 378.176 88.851 385.705 92.319C384.685 94.474 385.566 97.014 387.711 97.901L384.898 104.648C382.636 103.713 380.013 104.618 378.997 106.765C370.279 102.747 362.069 97.66 354.595 91.646C356.076 89.788 355.728 87.043 353.886 85.434Z" fill="white"/>
<path d="M375.494 96.056C374.008 98.81 370.438 99.755 367.615 98.008C364.798 96.251 364.065 92.631 365.877 90.079C367.686 87.528 371.102 86.831 373.595 88.386C376.093 89.932 376.98 93.304 375.494 96.056Z" fill="#0C4B96"/>
<path d="M363.357 88.272C362.472 89.482 360.747 89.724 359.533 88.775C358.313 87.834 358.129 86.095 359.077 84.947C360.035 83.787 361.71 83.609 362.86 84.497C364.005 85.391 364.24 87.065 363.357 88.272Z" fill="#0C4B96"/>
<path d="M378.231 97.515C377.538 98.845 378.085 100.498 379.473 101.167C380.857 101.844 382.498 101.239 383.108 99.88C383.724 98.508 383.142 96.927 381.837 96.288C380.527 95.658 378.921 96.19 378.231 97.515Z" fill="#0C4B96"/>
<path d="M277.976 95.817C279.741 95.698 281.545 95.202 283.161 94.389C283.974 93.975 284.721 93.516 285.428 92.936C286.155 92.375 286.855 91.712 287.534 90.934C290.298 87.867 292.598 83.112 294.974 77.677L311.571 85.017C310.336 87.806 309.014 90.769 307.37 93.819C305.716 96.861 303.746 100.017 301.097 102.992C299.79 104.478 298.303 105.909 296.652 107.197C295.016 108.511 293.192 109.656 291.317 110.601C287.549 112.492 283.432 113.635 279.183 113.925L277.976 95.817Z" fill="#0C4B96"/>
<path opacity="0.2" d="M299.493 81.526L305.665 84.289C304.765 86.314 305.564 88.757 307.539 89.728C305.606 93.72 303.275 97.955 299.821 101.857C298.098 103.801 296.087 105.617 293.809 107.169C291.529 108.704 289.056 109.914 286.464 110.77C286.114 109.725 285.26 108.964 284.239 108.498C283.211 108.038 282.011 107.857 280.761 108.037L279.793 101.344C280.722 101.211 281.467 100.579 281.827 99.727C282.196 98.876 282.186 97.826 281.837 96.784C283.166 96.346 284.435 95.721 285.579 94.95C286.709 94.171 287.797 93.215 288.811 92.069C290.852 89.783 292.628 86.751 294.274 83.32C296.248 84.291 298.605 83.523 299.493 81.526Z" fill="white"/>
<path opacity="0.2" d="M299.493 81.526L305.665 84.289C304.765 86.314 305.564 88.757 307.539 89.728C305.606 93.72 303.275 97.955 299.821 101.857C298.098 103.801 296.087 105.617 293.809 107.169C291.529 108.704 289.056 109.914 286.464 110.77C286.114 109.725 285.26 108.964 284.239 108.498C283.211 108.038 282.011 107.857 280.761 108.037L279.793 101.344C280.722 101.211 281.467 100.579 281.827 99.727C282.196 98.876 282.186 97.826 281.837 96.784C283.166 96.346 284.435 95.721 285.579 94.95C286.709 94.171 287.797 93.215 288.811 92.069C290.852 89.783 292.628 86.751 294.274 83.32C296.248 84.291 298.605 83.523 299.493 81.526Z" fill="white"/>
<path d="M290.472 100.513C289.622 99.35 289.275 97.944 289.284 96.73C289.277 95.464 289.626 94.377 290.398 93.481C291.184 92.61 292.302 92.085 293.573 91.927C294.834 91.771 296.249 92.002 297.464 92.779C298.688 93.562 299.463 94.776 299.645 96.181C299.826 97.575 299.385 99.164 298.235 100.446C297.111 101.743 295.498 102.403 294.07 102.392C292.593 102.358 291.329 101.685 290.472 100.513Z" fill="#0C4B96"/>
<path d="M298.94 90.318C297.736 89.628 297.285 88.149 297.888 86.967C298.49 85.779 299.972 85.266 301.226 85.853C302.481 86.441 303.008 87.961 302.358 89.245C301.701 90.532 300.14 91.005 298.94 90.318Z" fill="#0C4B96"/>
<path d="M288.058 102.061C287.363 100.866 285.946 100.376 284.834 100.843C283.725 101.32 283.073 102.655 283.442 103.998C283.804 105.327 285.331 106.083 286.773 105.47C288.216 104.861 288.757 103.26 288.058 102.061Z" fill="#0C4B96"/>
<path d="M228.17 116.449C232.614 112.955 236.366 108.416 239.083 103.321C241.805 98.229 243.489 92.585 243.92 86.949L265.633 88.62C264.954 97.412 262.383 105.915 258.294 113.577C254.202 121.238 248.568 128.105 241.64 133.561L228.17 116.449Z" fill="#0C4B96"/>
<path opacity="0.2" d="M250.535 89.346L258.594 90.298C258.445 91.715 258.723 93.056 259.435 94.165C260.089 95.257 261.129 96.109 262.42 96.388C261.235 102.07 259.162 107.509 256.487 112.612C253.735 117.675 250.369 122.422 246.307 126.569C245.357 125.652 244.07 125.262 242.799 125.325C241.481 125.35 240.212 125.866 239.118 126.778L233.843 120.612C234.779 119.835 235.197 118.649 235.168 117.52C235.103 116.342 234.561 115.184 233.611 114.267C236.495 111.337 238.905 107.918 240.891 104.287C242.803 100.616 244.304 96.711 245.133 92.685C246.424 92.964 247.687 92.769 248.702 92.168C249.657 91.563 250.41 90.556 250.535 89.346Z" fill="white"/>
<path opacity="0.2" d="M250.535 89.346L258.594 90.298C258.445 91.715 258.723 93.056 259.435 94.165C260.089 95.257 261.129 96.109 262.42 96.388C261.235 102.07 259.162 107.509 256.487 112.612C253.735 117.675 250.369 122.422 246.307 126.569C245.357 125.652 244.07 125.262 242.799 125.325C241.481 125.35 240.212 125.866 239.118 126.778L233.843 120.612C234.779 119.835 235.197 118.649 235.168 117.52C235.103 116.342 234.561 115.184 233.611 114.267C236.495 111.337 238.905 107.918 240.891 104.287C242.803 100.616 244.304 96.711 245.133 92.685C246.424 92.964 247.687 92.769 248.702 92.168C249.657 91.563 250.41 90.556 250.535 89.346Z" fill="white"/>
<path d="M245.397 113.805C243.967 112.806 243.098 111.368 242.683 109.863C242.479 109.11 242.432 108.362 242.497 107.621C242.553 106.873 242.759 106.153 243.139 105.487C243.481 104.8 243.965 104.229 244.555 103.766C245.135 103.299 245.783 102.922 246.521 102.672C248.003 102.179 249.681 102.101 251.307 102.734C252.918 103.361 254.157 104.624 254.688 106.201C254.957 106.988 255.094 107.868 255.018 108.756C254.933 109.638 254.674 110.546 254.237 111.412C253.761 112.257 253.151 112.977 252.465 113.539C251.769 114.095 250.962 114.472 250.158 114.686C248.553 115.121 246.815 114.795 245.397 113.805Z" fill="#0C4B96"/>
<path d="M252.459 99.489C251.667 99.235 251.053 98.69 250.693 98.037C250.329 97.381 250.171 96.602 250.379 95.848C250.781 94.351 252.31 93.357 253.963 93.664C255.579 93.962 256.666 95.632 256.209 97.348C255.976 98.196 255.461 98.882 254.769 99.264C254.072 99.647 253.25 99.743 252.459 99.489Z" fill="#0C4B96"/>
<path d="M243.341 116.566C242.69 116.049 241.895 115.842 241.152 115.906C240.404 115.969 239.669 116.27 239.159 116.863C238.139 118.029 238.164 119.854 239.338 121.056C240.485 122.233 242.477 122.207 243.649 120.873C244.224 120.208 244.507 119.398 244.44 118.611C244.37 117.82 243.993 117.083 243.341 116.566Z" fill="#0C4B96"/>
<path d="M271.296 209.376C267.669 216.639 260.796 221.872 252.83 223.436L250.981 213.817C255.813 212.917 260.362 209.453 262.515 205.035L271.296 209.376Z" fill="#0C4B96"/>
<path opacity="0.2" d="M253.231 220.2L252.378 216.651C253.451 216.394 253.956 215.182 253.536 214.064C256.941 212.87 260.016 210.529 262.073 207.564C263.039 208.266 264.341 208.102 264.875 207.136L268.069 208.902C267.456 210.019 267.635 211.424 268.591 212.118C265.551 216.47 261.195 219.786 256.192 221.559C255.778 220.452 254.471 219.906 253.231 220.2Z" fill="white"/>
<path opacity="0.2" d="M253.231 220.2L252.378 216.651C253.451 216.394 253.956 215.182 253.536 214.064C256.941 212.87 260.016 210.529 262.073 207.564C263.039 208.266 264.341 208.102 264.875 207.136L268.069 208.902C267.456 210.019 267.635 211.424 268.591 212.118C265.551 216.47 261.195 219.786 256.192 221.559C255.778 220.452 254.471 219.906 253.231 220.2Z" fill="white"/>
<path d="M262.851 212.784C263.978 213.869 263.864 215.796 262.436 216.895C260.996 217.98 259.108 217.576 258.362 216.202C257.616 214.831 257.949 213.193 259.007 212.393C260.06 211.586 261.728 211.7 262.851 212.784Z" fill="#0C4B96"/>
<path d="M256.992 216.924C257.326 217.597 257.013 218.43 256.265 218.729C255.523 219.039 254.71 218.649 254.486 217.945C254.255 217.224 254.608 216.488 255.245 216.22C255.889 215.964 256.661 216.257 256.992 216.924Z" fill="#0C4B96"/>
<path d="M263.911 211.656C264.47 212.157 265.357 212.076 265.844 211.436C266.34 210.803 266.18 209.916 265.562 209.513C264.928 209.099 264.125 209.243 263.697 209.786C263.28 210.337 263.357 211.159 263.911 211.656Z" fill="#0C4B96"/>
<g opacity="0.2">
<path d="M343.448 97.774C338.504 111.606 337.736 126.739 341.256 141L359.9 136.385C357.288 125.875 357.868 114.443 361.529 104.251L343.448 97.774Z" fill="white"/>
<path d="M329.398 105.734C333.382 95.663 340.498 86.698 349.401 80.533L338.452 64.752C326.389 73.134 316.969 85.002 311.544 98.653L329.398 105.734Z" fill="white"/>
<path d="M255.838 74.174L248.085 52.685C231.654 58.626 217.194 69.383 206.779 83.412L225.132 97.017C232.794 86.66 243.717 78.535 255.838 74.174Z" fill="white"/>
<path d="M298.238 70.187C304.755 67.936 311.74 67.054 318.444 67.694L320.919 41.611C310.29 40.606 299.625 41.997 289.698 45.418C279.772 48.843 270.516 54.321 262.766 61.664L280.791 80.678C285.674 76.042 291.719 72.431 298.238 70.187Z" fill="white"/>
<path d="M245.935 240.647L239.616 237.35C236.809 242.824 237.226 249.462 240.696 254.542L246.553 250.48C244.615 247.753 244.354 243.595 245.935 240.647Z" fill="white"/>
<path d="M242.666 216.552L236.609 222.932C240.432 226.56 243.557 230.95 245.734 235.75L253.745 232.116C251.095 226.275 247.318 220.969 242.666 216.552Z" fill="white"/>
<path d="M246.794 210.457L257.175 210.155C257.001 204.516 258.934 198.706 262.452 194.295L254.322 187.834C249.253 194.23 246.569 202.299 246.794 210.457Z" fill="white"/>
<path d="M317.677 166.066C316.837 175.12 312.61 184.03 306.129 190.408L317.878 202.304C327.206 193.066 333.068 180.709 334.322 167.64L317.677 166.066Z" fill="white"/>
<path d="M328.269 193.537L346.245 204.471C352.493 194.185 361.682 185.557 372.341 179.968L362.56 161.34C348.471 168.747 336.548 179.942 328.269 193.537Z" fill="white"/>
<path d="M381.126 123.683L363.386 135.469C369.811 145.101 372.761 157.31 371.444 168.813L392.608 171.197C394.459 154.572 390.365 137.63 381.126 123.683Z" fill="white"/>
<path d="M384.399 111.091L391.636 92.857C380.593 88.502 370.314 82.133 361.508 74.19L348.314 88.733C358.884 98.262 371.149 105.862 384.399 111.091Z" fill="white"/>
<path d="M311.572 85.017L294.975 77.677C292.6 83.113 290.3 87.867 287.535 90.934C286.856 91.712 286.155 92.375 285.429 92.936C284.721 93.516 283.974 93.975 283.162 94.389C281.546 95.202 279.742 95.697 277.977 95.817L279.184 113.924C283.433 113.635 287.55 112.491 291.318 110.6C293.194 109.655 295.017 108.51 296.653 107.196C298.304 105.908 299.791 104.477 301.098 102.991C303.747 100.016 305.717 96.86 307.371 93.818C309.014 90.769 310.336 87.806 311.572 85.017Z" fill="white"/>
<path d="M258.295 113.577C262.384 105.914 264.954 97.412 265.634 88.62L243.921 86.949C243.49 92.585 241.806 98.229 239.084 103.321C236.367 108.416 232.614 112.956 228.171 116.449L241.641 133.561C248.568 128.105 254.203 121.238 258.295 113.577Z" fill="white"/>
<path d="M250.981 213.817L252.83 223.436C260.796 221.872 267.669 216.639 271.296 209.376L262.515 205.034C260.362 209.453 255.813 212.917 250.981 213.817Z" fill="white"/>
</g>
<path d="M305.576 362.944L362.463 329.668C366.194 327.486 367.738 322.882 366.078 318.891L363.207 311.99L364.749 315.695C366.274 319.361 364.823 323.588 361.367 325.544L299.504 360.558C300.226 362.976 303.125 364.377 305.576 362.944Z" fill="#37474F"/>
<path d="M361.98 293.769L356.893 296.817L363.206 311.99L366.077 318.891C367.737 322.882 366.193 327.486 362.462 329.668L305.575 362.944C303.124 364.378 300.225 362.976 299.502 360.559L295.473 362.84L219.093 318.695L216.625 344.566L220.631 345.162L220.927 343.411C221.435 340.404 224.784 338.825 227.427 340.346L283.709 372.748C288.401 375.449 291.083 380.642 290.568 386.032L290.377 388.039H294.433L295.263 383.123C295.95 379.057 298.417 375.511 301.989 373.453L367.025 335.993C369.643 334.485 372.989 335.528 374.288 338.255L380.442 351.183C380.442 351.183 382.457 352.262 383.248 350.32L361.98 293.769Z" fill="#455A64"/>
<path d="M289.64 229.995L228.509 277.346C224.741 280.265 222.347 284.612 221.894 289.357L215.038 361.204C216.369 362.463 217.88 361.456 217.88 361.456L230.06 289.326C230.481 286.837 231.969 284.656 234.135 283.358L288.164 250.98C295.222 246.774 296.468 231.886 289.64 229.995Z" fill="#455A64"/>
<path d="M359.663 311.74L359.662 311.741C359.4 311.05 358.909 310.431 358.185 310.013L296.889 274.624C294.247 273.099 290.992 273.104 288.355 274.636L227.503 310C226.775 310.423 226.285 311.049 226.027 311.746L226.019 311.742C224.27 314.961 223.684 322.289 226.117 326.953C226.117 326.953 226.533 327.847 227.512 328.435L288.808 363.824C291.449 365.349 294.705 365.345 297.342 363.812L358.194 328.448C358.834 328.076 359.286 327.546 359.563 326.95L359.566 326.952C361.998 322.287 361.412 314.959 359.663 311.74Z" fill="#0C4B96"/>
<path opacity="0.3" d="M359.663 311.74L359.662 311.741C359.4 311.05 358.909 310.431 358.185 310.013L296.889 274.624C294.247 273.099 290.992 273.104 288.355 274.636L227.503 310C226.775 310.423 226.285 311.049 226.027 311.746L226.019 311.742C224.27 314.961 223.684 322.289 226.117 326.953C226.117 326.953 226.533 327.847 227.512 328.435L288.808 363.824C291.449 365.349 294.705 365.345 297.342 363.812L358.194 328.448C358.834 328.076 359.286 327.546 359.563 326.95L359.566 326.952C361.998 322.287 361.412 314.959 359.663 311.74Z" fill="black"/>
<path opacity="0.3" d="M359.663 311.74L359.662 311.741C360.22 313.212 359.733 315.011 358.193 315.906L297.341 351.27C294.704 352.802 291.449 352.807 288.807 351.282L227.511 315.893C225.973 315.005 225.48 313.216 226.026 311.746L226.018 311.742C224.269 314.961 223.683 322.289 226.116 326.953C226.116 326.953 226.532 327.847 227.511 328.435L288.807 363.824C291.448 365.349 294.704 365.345 297.341 363.812L358.193 328.448C358.833 328.076 359.285 327.546 359.562 326.95L359.565 326.952C361.998 322.287 361.412 314.959 359.663 311.74Z" fill="black"/>
<path d="M364.728 244.488L306.776 211.03C306.235 210.718 305.654 210.571 305.082 210.561V210.555C305.003 210.554 304.927 210.561 304.848 210.561C304.831 210.562 304.813 210.561 304.796 210.562C299.499 210.613 295.352 213.772 292.271 217.477C292.227 217.525 292.187 217.575 292.146 217.625C292.139 217.633 292.133 217.641 292.126 217.649C291.827 218.019 291.592 218.454 291.458 218.952L274.834 280.879C273.867 284.48 275.441 288.282 278.67 290.146L336.622 323.604C337.273 323.98 337.981 324.119 338.663 324.064L338.659 324.079C345.293 323.397 349.196 319.298 351.152 317.132C351.512 316.734 351.788 316.245 351.94 315.681L368.564 253.754C369.531 250.154 367.957 246.353 364.728 244.488Z" fill="#0C4B96"/>
<path opacity="0.2" d="M364.728 244.488L306.776 211.03C306.235 210.718 305.654 210.571 305.082 210.561V210.555C305.003 210.554 304.927 210.561 304.848 210.561C304.831 210.562 304.813 210.561 304.796 210.562C299.499 210.613 295.352 213.772 292.271 217.477C292.227 217.525 292.187 217.575 292.146 217.625C292.139 217.633 292.133 217.641 292.126 217.649C291.827 218.019 291.592 218.454 291.458 218.952L274.834 280.879C273.867 284.48 275.441 288.282 278.67 290.146L336.622 323.604C337.273 323.98 337.981 324.119 338.663 324.064L338.659 324.079C345.293 323.397 349.196 319.298 351.152 317.132C351.512 316.734 351.788 316.245 351.94 315.681L368.564 253.754C369.531 250.154 367.957 246.353 364.728 244.488Z" fill="black"/>
<path opacity="0.1" d="M364.728 244.488L306.776 211.03C306.235 210.718 305.654 210.571 305.082 210.561V210.555C305.003 210.554 304.927 210.561 304.848 210.561C304.831 210.562 304.813 210.561 304.796 210.562C299.499 210.613 295.352 213.772 292.271 217.477C293.344 216.315 295.14 215.95 296.632 216.811L354.584 250.269C356.283 251.25 357.518 252.769 358.171 254.511L368.292 248.668C367.633 246.953 366.407 245.458 364.728 244.488Z" fill="black"/>
<path opacity="0.2" d="M358.171 254.513C358.76 256.082 358.878 257.831 358.42 259.538L341.797 321.465C341.39 322.98 340.087 323.952 338.664 324.067L338.66 324.082C345.294 323.4 349.197 319.301 351.153 317.135C351.513 316.737 351.789 316.248 351.941 315.684L368.565 253.757C369.029 252.028 368.902 250.255 368.293 248.67L358.171 254.513Z" fill="black"/>
<path d="M240.411 362.401C241.394 366.323 241.589 373.394 241.589 373.394L244.197 372.411C246.725 371.458 249.578 372.108 251.444 374.061L251.572 374.195C252.542 375.21 254.139 375.282 255.197 374.359C255.746 373.879 256.072 373.193 256.095 372.463L256.445 361.363L240.411 362.401Z" fill="#FFA8A7"/>
<path d="M250.479 403.656C245.067 409.445 235.102 414.505 227.862 409.567L228.675 411.409C235.915 416.347 245.88 411.287 251.292 405.498C256.704 399.709 253.192 395.698 258.062 390.563C261.239 387.419 262.273 384.308 262.273 384.308C262.057 383.755 261.849 383.034 261.595 382.207C260.953 383.652 259.515 386.48 257.25 388.721C252.379 393.856 255.89 397.866 250.479 403.656Z" fill="white"/>
<path d="M258.926 376.159C257.736 374.288 257.34 372.996 257.225 372.211C257.127 371.541 256.728 370.959 256.153 370.601L256.094 372.464C256.071 373.193 255.746 373.88 255.196 374.36C254.138 375.283 252.541 375.211 251.571 374.196L251.443 374.062C249.577 372.109 246.724 371.459 244.196 372.412L241.546 373.411C240.736 373.716 240.209 374.496 240.228 375.361C240.397 382.952 236.851 393.034 233.134 398.573C229.31 400.156 226.008 405.367 227.694 409.187L227.862 409.568C235.102 414.506 245.067 409.446 250.479 403.657C255.891 397.867 252.379 393.857 257.25 388.722C259.514 386.481 260.953 383.653 261.595 382.208C261.083 380.547 260.371 378.429 258.926 376.159Z" fill="#0C4B96"/>
<path opacity="0.2" d="M258.926 376.159C257.736 374.288 257.34 372.996 257.225 372.211C257.127 371.541 256.728 370.959 256.153 370.601L256.094 372.464C256.071 373.193 255.746 373.88 255.196 374.36C254.138 375.283 252.541 375.211 251.571 374.196L251.443 374.062C249.577 372.109 246.724 371.459 244.196 372.412L241.546 373.411C240.736 373.716 240.209 374.496 240.228 375.361C240.397 382.952 236.851 393.034 233.134 398.573C229.31 400.156 226.008 405.367 227.694 409.187L227.862 409.568C235.102 414.506 245.067 409.446 250.479 403.657C255.891 397.867 252.379 393.857 257.25 388.722C259.514 386.481 260.953 383.653 261.595 382.208C261.083 380.547 260.371 378.429 258.926 376.159Z" fill="white"/>
<path d="M248.339 387.117C248.789 387.344 249.339 387.153 249.566 386.703C249.791 386.259 249.631 385.704 249.189 385.475C245.026 383.324 241.455 384.038 238.793 385.491C238.631 386.089 238.46 386.684 238.277 387.275C241.344 385.72 244.454 385.153 248.339 387.117Z" fill="white"/>
<path d="M249.671 383.013C250.121 383.24 250.671 383.049 250.899 382.599C251.124 382.155 250.964 381.6 250.522 381.371C246.382 379.232 242.585 379.88 239.705 381.457C239.596 382.075 239.468 382.696 239.331 383.319C242.488 381.655 245.669 380.99 249.671 383.013Z" fill="white"/>
<path d="M246.876 391.201C247.325 391.428 247.876 391.236 248.103 390.787C248.328 390.343 248.168 389.788 247.726 389.56C243.678 387.468 240.189 388.086 237.552 389.459C237.322 390.102 237.079 390.732 236.83 391.353C239.892 389.801 242.998 389.24 246.876 391.201Z" fill="white"/>
<path d="M233.134 398.572C229.31 400.155 226.008 405.366 227.694 409.186L227.862 409.567C234.995 414.432 244.764 409.59 250.227 403.91C245.67 394.975 236.145 397.203 233.134 398.572Z" fill="white"/>
<path d="M245.275 395.19C245.725 395.417 246.275 395.226 246.502 394.776C246.727 394.332 246.567 393.777 246.125 393.548C242.066 391.45 238.57 392.077 235.931 393.457C235.608 394.166 235.274 394.844 234.934 395.496C238.092 393.831 241.273 393.166 245.275 395.19Z" fill="white"/>
<path d="M229.035 384.47C228.352 388.455 225.676 395.003 225.676 395.003L228.459 395.156C231.156 395.305 233.504 397.05 234.424 399.591L234.487 399.765C234.965 401.085 236.397 401.796 237.737 401.378C238.433 401.161 239.008 400.664 239.323 400.006L244.124 389.991L229.035 384.47Z" fill="#FFA8A7"/>
<path d="M221.595 426.28C214.307 429.392 203.147 430 198.516 422.56V424.574C203.147 432.014 214.307 431.407 221.595 428.294C228.883 425.181 227.289 420.095 233.817 417.362C237.993 415.768 240.194 413.338 240.194 413.338C240.219 412.745 240.32 412.001 240.421 411.142C239.25 412.205 236.793 414.212 233.817 415.348C227.288 418.081 228.883 423.167 221.595 426.28Z" fill="white"/>
<path d="M240.422 404.531C240.088 402.339 240.248 400.997 240.459 400.233C240.64 399.58 240.51 398.887 240.128 398.328L239.322 400.008C239.007 400.666 238.432 401.163 237.736 401.38C236.396 401.798 234.964 401.087 234.486 399.767L234.423 399.593C233.504 397.053 231.156 395.307 228.458 395.158L225.63 395.002C224.765 394.955 223.969 395.455 223.637 396.255C220.728 403.269 213.415 411.062 207.778 414.629C203.641 414.534 198.516 417.969 198.516 422.145V422.561C203.147 430.001 214.307 429.394 221.595 426.281C228.883 423.168 227.289 418.082 233.817 415.349C236.793 414.213 239.251 412.206 240.421 411.143C240.624 409.417 240.827 407.191 240.422 404.531Z" fill="#0C4B96"/>
<path opacity="0.2" d="M240.422 404.531C240.088 402.339 240.248 400.997 240.459 400.233C240.64 399.58 240.51 398.887 240.128 398.328L239.322 400.008C239.007 400.666 238.432 401.163 237.736 401.38C236.396 401.798 234.964 401.087 234.486 399.767L234.423 399.593C233.504 397.053 231.156 395.307 228.458 395.158L225.63 395.002C224.765 394.955 223.969 395.455 223.637 396.255C220.728 403.269 213.415 411.062 207.778 414.629C203.641 414.534 198.516 417.969 198.516 422.145V422.561C203.147 430.001 214.307 429.394 221.595 426.281C228.883 423.168 227.289 418.082 233.817 415.349C236.793 414.213 239.251 412.206 240.421 411.143C240.624 409.417 240.827 407.191 240.422 404.531Z" fill="white"/>
<path d="M226.313 410.285C226.633 410.674 227.214 410.721 227.603 410.402C227.988 410.087 228.066 409.514 227.754 409.127C224.813 405.478 221.258 404.691 218.236 404.946C217.847 405.428 217.45 405.903 217.044 406.37C220.477 406.182 223.551 406.919 226.313 410.285Z" fill="white"/>
<path d="M229.188 407.067C229.508 407.456 230.089 407.503 230.478 407.184C230.863 406.869 230.941 406.296 230.629 405.909C227.704 402.281 223.969 401.341 220.697 401.622C220.348 402.143 219.981 402.66 219.603 403.174C223.164 402.925 226.342 403.6 229.188 407.067Z" fill="white"/>
<path d="M223.326 413.43C223.646 413.819 224.227 413.866 224.616 413.547C225.001 413.232 225.079 412.659 224.767 412.272C221.908 408.724 218.466 407.882 215.5 408.073C215.03 408.569 214.553 409.047 214.075 409.515C217.501 409.331 220.569 410.071 223.326 413.43Z" fill="white"/>
<path d="M207.778 414.628C203.641 414.533 198.516 417.968 198.516 422.144V422.56C203.079 429.89 213.971 429.403 221.261 426.411C220.699 416.397 211.085 414.591 207.778 414.628Z" fill="white"/>
<path d="M220.251 416.433C220.571 416.822 221.152 416.869 221.541 416.55C221.926 416.234 222.004 415.662 221.692 415.274C218.825 411.717 215.374 410.88 212.402 411.076C211.82 411.594 211.241 412.079 210.667 412.539C214.228 412.291 217.406 412.966 220.251 416.433Z" fill="white"/>
<path d="M271.851 289.67L235.37 309.995C228.59 313.772 224.978 321.456 226.395 329.087L233.475 367.218L227.667 385.666C232.677 392.385 244.179 392.726 244.179 392.726C250.594 379.858 255.301 374.392 258.945 363.612C262.589 352.832 265.018 345.392 265.018 345.392L295.315 337.112C309.478 333.241 319.922 321.156 321.567 306.566C322.083 301.985 322.107 298.856 322.107 298.856L271.851 289.67Z" fill="#37474F"/>
<path opacity="0.2" d="M272.128 299.919C272.119 303.95 273.593 307.969 276.208 311.037L250.465 327.15C246.688 329.515 243.89 333.163 242.587 337.424L233.476 367.218L241.694 334.037C242.639 330.22 245.041 326.926 248.386 324.858L272.156 310.167C269.726 304.094 272.128 299.919 272.128 299.919Z" fill="black"/>
<path d="M249.41 254.889C253.128 264.848 265.76 262.304 265.76 262.304C266.406 248.897 249.41 254.889 249.41 254.889Z" fill="#0C4B96"/>
<path opacity="0.3" d="M249.41 254.889C253.128 264.848 265.76 262.304 265.76 262.304C266.406 248.897 249.41 254.889 249.41 254.889Z" fill="black"/>
<path d="M275.801 226.99L274.86 227C268.557 227.071 260.584 231.358 256.689 242.358L241.549 271.679L258.832 279.342L268.286 251.665L275.801 226.99Z" fill="#FFA8A7"/>
<path opacity="0.2" d="M263.664 246.45C262.456 249.913 262.382 253.649 262.191 257.311C262.001 260.973 261.576 265.395 259.899 268.656C258.068 267.389 255.821 266.732 253.596 266.813C251.37 266.894 249.178 267.712 247.443 269.109C246.195 270.114 245.269 271.496 244.64 273.049L258.833 279.342L268.287 251.665L272.935 236.404C268.684 238.355 265.207 242.024 263.664 246.45Z" fill="black"/>
<path d="M258.992 274.051C257.72 270.783 254.636 268.29 251.174 267.73C247.712 267.17 243.786 268.979 241.549 271.68C239.663 273.958 239.96 277.038 241.149 279.746C243.014 283.992 248.212 286.455 252.679 285.208C257.145 283.96 260.673 278.372 258.992 274.051Z" fill="#FFA8A7"/>
<path d="M275.801 226.99C268.271 226.155 258.787 229.625 249.41 254.889C261.621 255.191 265.76 262.304 265.76 262.304C271.278 248.249 277.487 228.762 277.487 228.762L275.801 226.99Z" fill="#0C4B96"/>
<path opacity="0.2" d="M275.801 226.99C268.271 226.155 258.787 229.625 249.41 254.889C261.621 255.191 265.76 262.304 265.76 262.304C271.278 248.249 277.487 228.762 277.487 228.762L275.801 226.99Z" fill="white"/>
<path d="M322.691 301.703C316.22 307.92 285.135 309.062 269.276 293.963C270.799 283.305 270.291 271.886 269.276 260.595C268.261 249.303 261.664 229.553 274.267 227.256C291.099 223.969 299.604 226.99 313.345 230.567C325.355 250.572 323.706 280.515 322.691 301.703Z" fill="#0C4B96"/>
<path opacity="0.4" d="M322.691 301.703C316.22 307.92 285.135 309.062 269.276 293.963C270.799 283.305 270.291 271.886 269.276 260.595C268.261 249.303 261.664 229.553 274.267 227.256C291.099 223.969 299.604 226.99 313.345 230.567C325.355 250.572 323.706 280.515 322.691 301.703Z" fill="white"/>
<path d="M266.062 209.748C263.292 208.412 261.052 206.014 259.907 203.161C258.762 200.307 258.723 197.026 259.802 194.146C258.357 193.741 256.878 192.905 256.035 191.663C255.223 190.468 255.225 188.775 256.04 187.581C256.854 186.387 258.43 185.768 259.839 186.088C258.667 184.217 259.13 181.312 260.813 179.883C262.496 178.454 265.233 178.48 266.889 179.94C266.556 178.572 267.283 177.071 268.525 176.407C269.767 175.743 271.258 175.728 272.649 175.947C274.04 176.166 275.391 176.602 276.787 176.789C279.144 177.105 281.529 176.702 283.894 176.457C286.259 176.213 288.734 176.142 290.923 177.07C293.113 177.998 295.37 180.669 294.759 183.417C295.273 182.461 296.226 181.672 297.289 181.449C298.352 181.226 299.507 181.494 300.363 182.162C299.06 183.324 297.816 184.547 296.513 185.71C297.869 184.79 300.245 185.444 301.288 186.707C302.33 187.971 302.665 189.661 302.901 191.282C303.794 197.441 303.746 203.73 302.83 209.886C302.356 213.068 301.119 217.152 298.513 219.039L266.062 209.748Z" fill="#37474F"/>
<path d="M281.607 221.497L282.26 228.797C282.311 229.365 282.131 229.912 281.847 230.406C281.027 231.836 281.281 234.12 282.491 235.175C283.372 235.943 284.586 236.196 285.751 236.281C290.254 236.608 294.846 234.666 297.814 231.627C298.461 230.964 298.793 230.055 298.769 229.128L298.29 210.617L281.607 221.497Z" fill="#FFA8A7"/>
<path opacity="0.3" d="M298.291 210.618L281.607 221.497L282.186 227.971C285.723 227.142 289.282 226.121 292.081 223.844C295.64 220.949 298.771 218.079 298.291 210.618Z" fill="black"/>
<path d="M262.635 195.077C262.992 203.581 265.038 212.011 268.619 219.733C269.404 221.424 270.273 223.1 271.496 224.508C272.719 225.916 274.335 227.048 276.167 227.39C278.422 227.811 280.706 227.017 282.862 226.234C286.805 224.804 290.846 223.317 294.005 220.558C297.164 217.8 299.289 213.443 298.226 209.386C300.492 210.206 303.15 210.061 305.048 208.575C306.945 207.089 308.002 204.595 307.749 202.198C307.503 199.865 305.72 197.53 303.375 197.471C301.942 197.435 300.592 198.242 299.639 199.312C298.686 200.382 298.065 201.701 297.455 202.998C297.165 203.616 296.86 204.253 296.344 204.701C295.828 205.149 295.039 205.357 294.451 205.01C293.808 204.63 293.649 203.788 293.554 203.047L292.878 197.786C292.771 196.958 292.178 196.291 291.38 196.046C290.222 195.691 289.236 194.838 288.57 193.766C287.993 192.838 287.635 191.803 287.359 190.741C287.137 189.886 286.157 189.487 285.407 189.954C278.897 194.011 270.185 195.668 262.635 195.077Z" fill="#FFA8A7"/>
<path d="M276.334 205.723L273.026 214.447L278.806 214.516L276.334 205.723Z" fill="#F28F8F"/>
<path d="M284.677 216.294C283.38 217.232 282.084 218.169 280.787 219.107C281.575 219.964 283.208 220.112 284.172 219.459C285.136 218.805 285.181 217.344 284.677 216.294Z" fill="#F28F8F"/>
<path opacity="0.3" d="M284.677 216.294C283.38 217.232 282.084 218.169 280.787 219.107C281.575 219.964 283.208 220.112 284.172 219.459C285.136 218.805 285.181 217.344 284.677 216.294Z" fill="black"/>
<path d="M282.72 219.856C283.247 219.857 283.768 219.731 284.172 219.458C284.929 218.945 285.114 217.936 284.917 217.017C284.314 217.126 283.744 217.429 283.343 217.893C282.881 218.43 282.668 219.153 282.72 219.856Z" fill="#F28F8F"/>
<path d="M284.493 204.617C284.737 205.485 284.231 206.386 283.364 206.629C282.496 206.873 281.595 206.367 281.351 205.5C281.107 204.632 281.613 203.731 282.481 203.488C283.349 203.244 284.25 203.749 284.493 204.617Z" fill="#263238"/>
<path d="M271.162 207.815C271.406 208.682 270.9 209.583 270.033 209.827C269.165 210.071 268.264 209.565 268.021 208.697C267.777 207.83 268.283 206.929 269.15 206.685C270.017 206.441 270.918 206.947 271.162 207.815Z" fill="#263238"/>
<path d="M267.876 201.992C266.941 203.121 266.006 204.25 265.071 205.378C264.495 204.649 264.525 203.483 265.059 202.722C265.592 201.961 266.994 201.699 267.876 201.992Z" fill="#263238"/>
<path d="M281.275 198.023C282.661 198.5 284.048 198.976 285.434 199.452C285.546 198.529 284.913 197.55 284.061 197.178C283.209 196.807 281.875 197.313 281.275 198.023Z" fill="#263238"/>
<path d="M276.823 300.947C276.822 300.94 276.821 300.933 276.82 300.927C276.82 300.925 276.819 300.923 276.819 300.921C276.817 300.91 276.816 300.899 276.814 300.887C276.81 300.868 276.806 300.849 276.8 300.828C276.795 300.81 276.789 300.791 276.782 300.771C276.776 300.753 276.768 300.734 276.761 300.714C276.753 300.695 276.745 300.676 276.736 300.656C276.728 300.637 276.718 300.618 276.709 300.598C276.7 300.579 276.689 300.559 276.678 300.539L276.676 300.535L265.363 279.474C265.352 279.454 265.342 279.435 265.331 279.416C265.319 279.395 265.307 279.374 265.294 279.353C265.281 279.332 265.268 279.31 265.254 279.289C265.24 279.267 265.226 279.246 265.211 279.223C265.196 279.201 265.18 279.178 265.165 279.156C265.149 279.133 265.133 279.11 265.116 279.088C265.099 279.065 265.082 279.043 265.065 279.02C265.048 278.998 265.032 278.976 265.014 278.954C264.998 278.933 264.981 278.912 264.964 278.891C264.949 278.872 264.933 278.853 264.918 278.834C264.905 278.818 264.891 278.802 264.878 278.786C264.865 278.77 264.851 278.754 264.837 278.738C264.826 278.725 264.815 278.712 264.803 278.7C264.793 278.689 264.783 278.677 264.773 278.666C264.763 278.655 264.753 278.643 264.743 278.632C264.733 278.621 264.722 278.609 264.712 278.598C264.704 278.589 264.696 278.581 264.688 278.572C264.68 278.564 264.672 278.556 264.665 278.547C264.657 278.539 264.65 278.53 264.642 278.522C264.634 278.514 264.626 278.505 264.619 278.497C264.611 278.489 264.603 278.48 264.595 278.472C264.588 278.465 264.58 278.457 264.573 278.449C264.566 278.442 264.559 278.435 264.553 278.428C264.546 278.421 264.539 278.414 264.532 278.407C264.525 278.4 264.518 278.393 264.511 278.386C264.504 278.379 264.497 278.372 264.49 278.365C264.483 278.358 264.476 278.351 264.469 278.344C264.462 278.337 264.454 278.329 264.447 278.322C264.439 278.314 264.432 278.307 264.424 278.299C264.416 278.291 264.408 278.283 264.4 278.276C264.392 278.268 264.384 278.261 264.376 278.253C264.368 278.245 264.36 278.238 264.352 278.23C264.344 278.223 264.336 278.215 264.328 278.207C264.315 278.195 264.303 278.183 264.29 278.171C264.276 278.158 264.262 278.144 264.248 278.131C264.234 278.118 264.219 278.104 264.205 278.092C264.151 278.042 264.096 277.993 264.041 277.945C264.029 277.935 264.017 277.924 264.005 277.914C263.993 277.903 263.981 277.893 263.969 277.883C263.957 277.873 263.945 277.863 263.933 277.852C263.921 277.842 263.909 277.832 263.897 277.822C263.889 277.816 263.882 277.809 263.874 277.803C263.866 277.796 263.858 277.79 263.85 277.784C263.842 277.777 263.835 277.771 263.827 277.765C263.819 277.758 263.811 277.752 263.804 277.746C263.796 277.74 263.788 277.733 263.781 277.727C263.773 277.721 263.765 277.714 263.757 277.708C263.749 277.702 263.742 277.695 263.734 277.69C263.726 277.684 263.719 277.678 263.711 277.672C263.703 277.666 263.696 277.66 263.688 277.654C263.68 277.648 263.673 277.642 263.665 277.636C263.657 277.63 263.65 277.624 263.642 277.618C263.634 277.612 263.626 277.606 263.619 277.6C263.611 277.593 263.602 277.587 263.594 277.581C263.585 277.574 263.575 277.567 263.566 277.56C263.557 277.553 263.547 277.546 263.538 277.539C263.529 277.532 263.519 277.525 263.51 277.518C263.501 277.511 263.491 277.504 263.482 277.498C263.472 277.491 263.463 277.484 263.453 277.477C263.44 277.468 263.427 277.459 263.414 277.45C263.401 277.44 263.388 277.431 263.375 277.422C263.362 277.413 263.349 277.404 263.336 277.395C263.322 277.385 263.308 277.375 263.294 277.365C263.275 277.353 263.257 277.34 263.239 277.328C263.221 277.316 263.202 277.304 263.184 277.292C263.163 277.278 263.143 277.265 263.122 277.252C263.099 277.238 263.076 277.223 263.054 277.209C263.031 277.195 263.007 277.18 262.984 277.166C262.959 277.151 262.935 277.137 262.91 277.123C262.896 277.115 262.881 277.106 262.867 277.098L249.86 269.782C249.85 269.776 249.839 269.77 249.829 269.765C249.804 269.751 249.779 269.738 249.754 269.725C249.729 269.712 249.705 269.699 249.681 269.687C249.657 269.675 249.633 269.663 249.61 269.652C249.586 269.641 249.563 269.63 249.54 269.619C249.517 269.609 249.494 269.599 249.472 269.589C249.449 269.579 249.426 269.57 249.403 269.561C249.38 269.552 249.357 269.544 249.335 269.536C249.311 269.528 249.288 269.52 249.265 269.513C249.241 269.505 249.217 269.499 249.194 269.494C249.177 269.49 249.162 269.487 249.146 269.484L249.142 269.483C249.135 269.482 249.128 269.48 249.121 269.478C249.094 269.473 249.068 269.469 249.044 269.467C249.011 269.464 248.981 269.463 248.953 269.465C248.865 269.47 248.799 269.497 248.757 269.545L247.205 271.321C247.214 271.31 247.246 271.321 247.258 271.312C247.129 271.409 247.12 271.617 247.306 271.963L258.62 293.024C259.027 293.782 260.135 294.839 261.113 295.39L274.119 302.706C274.79 303.084 275.192 303.092 275.249 302.818C275.24 302.858 275.247 302.911 275.224 302.938L276.776 301.162C276.796 301.139 276.811 301.112 276.819 301.08C276.825 301.058 276.829 301.034 276.83 301.009C276.826 300.989 276.825 300.969 276.823 300.947ZM247.496 271.273C247.533 271.275 247.543 271.25 247.586 271.258L247.59 271.259C247.602 271.261 247.624 271.275 247.636 271.278C247.578 271.264 247.544 271.276 247.496 271.273ZM262.409 279.671C262.529 279.773 262.654 279.869 262.767 279.976C262.654 279.868 262.529 279.773 262.409 279.671ZM263.222 280.461C263.271 280.517 263.334 280.573 263.38 280.629V280.63C263.334 280.574 263.272 280.517 263.222 280.461ZM275.262 302.733C275.255 302.622 275.218 302.487 275.125 302.312C275.207 302.464 275.253 302.593 275.268 302.697L275.269 302.701C275.27 302.715 275.261 302.72 275.262 302.733Z" fill="#455A64"/>
<path opacity="0.15" d="M276.823 300.947C276.822 300.94 276.821 300.933 276.82 300.927C276.82 300.925 276.819 300.923 276.819 300.921C276.817 300.91 276.816 300.899 276.814 300.887C276.81 300.868 276.806 300.849 276.8 300.828C276.795 300.81 276.789 300.791 276.782 300.771C276.776 300.753 276.768 300.734 276.761 300.714C276.753 300.695 276.745 300.676 276.736 300.656C276.728 300.637 276.718 300.618 276.709 300.598C276.7 300.579 276.689 300.559 276.678 300.539L276.676 300.535L265.363 279.474L263.811 281.25L275.125 302.311C275.207 302.463 275.253 302.592 275.268 302.696L275.269 302.7C275.283 302.804 275.266 302.883 275.22 302.937L276.772 301.161C276.792 301.138 276.807 301.111 276.815 301.079C276.821 301.057 276.825 301.033 276.826 301.008C276.826 300.989 276.825 300.969 276.823 300.947Z" fill="white"/>
<path opacity="0.2" d="M265.331 279.417C265.319 279.396 265.307 279.375 265.294 279.354C265.281 279.333 265.268 279.311 265.254 279.29C265.24 279.268 265.226 279.247 265.211 279.224C265.196 279.202 265.18 279.179 265.165 279.157C265.149 279.134 265.133 279.111 265.116 279.089C265.099 279.066 265.082 279.044 265.065 279.021C265.048 278.999 265.032 278.977 265.014 278.955C264.998 278.934 264.981 278.913 264.964 278.892C264.949 278.873 264.933 278.854 264.918 278.835C264.905 278.819 264.891 278.803 264.878 278.787C264.865 278.771 264.851 278.755 264.837 278.739C264.826 278.726 264.815 278.713 264.803 278.701C264.793 278.69 264.783 278.678 264.773 278.667C264.763 278.656 264.753 278.644 264.743 278.633C264.733 278.622 264.722 278.61 264.712 278.599C264.704 278.59 264.696 278.582 264.688 278.573C264.68 278.565 264.672 278.557 264.665 278.548C264.657 278.54 264.65 278.531 264.642 278.523C264.634 278.515 264.626 278.506 264.619 278.498C264.611 278.49 264.603 278.481 264.595 278.473C264.588 278.466 264.58 278.458 264.573 278.45C264.566 278.443 264.559 278.436 264.553 278.429C264.546 278.422 264.539 278.415 264.532 278.408C264.525 278.401 264.518 278.394 264.511 278.387C264.504 278.38 264.497 278.373 264.49 278.366C264.483 278.359 264.476 278.352 264.469 278.345C264.462 278.338 264.454 278.33 264.447 278.323C264.439 278.315 264.432 278.308 264.424 278.3C264.416 278.292 264.408 278.284 264.4 278.277C264.392 278.269 264.384 278.262 264.376 278.254C264.368 278.246 264.36 278.239 264.352 278.231C264.344 278.224 264.336 278.216 264.328 278.208C264.315 278.196 264.303 278.184 264.29 278.172C264.276 278.159 264.262 278.145 264.248 278.132C264.234 278.119 264.219 278.105 264.205 278.093C264.151 278.043 264.096 277.994 264.041 277.946C264.029 277.936 264.017 277.925 264.005 277.915C263.993 277.904 263.981 277.894 263.969 277.884C263.957 277.874 263.945 277.864 263.933 277.853C263.921 277.843 263.909 277.833 263.897 277.823C263.889 277.817 263.882 277.81 263.874 277.804C263.866 277.797 263.858 277.791 263.85 277.785C263.842 277.778 263.835 277.772 263.827 277.766C263.819 277.759 263.811 277.753 263.804 277.747C263.796 277.741 263.788 277.734 263.781 277.728C263.773 277.722 263.765 277.715 263.757 277.709C263.749 277.703 263.742 277.696 263.734 277.691C263.726 277.685 263.719 277.679 263.711 277.673C263.703 277.667 263.696 277.661 263.688 277.655C263.68 277.649 263.673 277.643 263.665 277.637C263.657 277.631 263.65 277.625 263.642 277.619C263.634 277.613 263.626 277.607 263.619 277.601C263.611 277.594 263.602 277.588 263.594 277.582C263.585 277.575 263.575 277.568 263.566 277.561C263.557 277.554 263.547 277.547 263.538 277.54C263.529 277.533 263.519 277.526 263.51 277.519C263.501 277.512 263.491 277.505 263.482 277.499C263.472 277.492 263.463 277.485 263.453 277.478C263.44 277.469 263.427 277.46 263.414 277.451C263.401 277.441 263.388 277.432 263.375 277.423C263.362 277.414 263.349 277.405 263.336 277.396C263.322 277.386 263.308 277.376 263.294 277.366C263.275 277.354 263.257 277.341 263.239 277.329C263.221 277.317 263.202 277.305 263.184 277.293C263.163 277.279 263.143 277.266 263.122 277.253C263.099 277.239 263.076 277.224 263.054 277.21C263.031 277.196 263.007 277.181 262.984 277.167C262.959 277.152 262.935 277.138 262.91 277.124C262.896 277.116 262.881 277.107 262.867 277.099L249.86 269.783C249.85 269.777 249.839 269.771 249.829 269.766C249.804 269.752 249.779 269.739 249.754 269.726C249.729 269.713 249.705 269.7 249.681 269.688C249.657 269.676 249.633 269.664 249.61 269.653C249.586 269.642 249.563 269.631 249.54 269.62C249.517 269.61 249.494 269.6 249.472 269.59C249.449 269.58 249.426 269.571 249.403 269.562C249.38 269.553 249.357 269.545 249.335 269.537C249.311 269.529 249.288 269.521 249.265 269.514C249.241 269.506 249.217 269.5 249.194 269.495C249.177 269.491 249.162 269.488 249.146 269.485L249.142 269.484C249.135 269.483 249.128 269.481 249.121 269.479C249.094 269.474 249.068 269.47 249.044 269.468C249.011 269.465 248.981 269.464 248.953 269.466C248.865 269.471 248.799 269.498 248.757 269.546L247.205 271.322C247.273 271.244 247.405 271.222 247.591 271.259L247.595 271.26C247.782 271.298 248.022 271.396 248.31 271.558L261.316 278.874C261.557 279.009 261.807 279.177 262.054 279.365L262.056 279.366C262.302 279.554 262.546 279.761 262.772 279.976L262.773 279.977C262.999 280.192 263.207 280.413 263.386 280.63L263.388 280.633C263.566 280.849 263.714 281.06 263.817 281.252L265.369 279.476C265.352 279.456 265.342 279.437 265.331 279.417Z" fill="white"/>
<path d="M321.667 236.237C319.825 233.071 316.998 230.842 313.345 230.567L311.155 233.91C308.876 238.076 307.707 242.759 307.76 247.508L308.153 282.653L308.16 282.655C307.298 283.005 306.44 283.37 305.582 283.726C298.468 286.68 290.576 289.31 282.975 290.557C279.157 287.335 273.712 285.663 268.717 285.719L270.636 289.291C267.001 291.618 258.791 287.423 258.791 287.423C258.188 292.546 261.507 297.865 265.908 300.555C270.309 303.246 312.322 299.295 321.232 293.525C327.089 289.732 325.705 253.497 325.705 253.497C326.112 247.47 324.706 241.459 321.667 236.237Z" fill="#FFA8A7"/>
<path d="M249.909 276.819C249.788 277.93 249.305 279.911 249.431 281.021C249.808 284.346 251.149 287.609 253.483 290.007C253.984 290.521 254.546 291.006 255.225 291.238C255.904 291.47 256.724 291.405 257.25 290.916C257.809 290.397 257.911 289.562 257.956 288.8C258.023 287.662 258.04 286.505 257.769 285.397C257.498 284.289 256.911 283.223 255.975 282.572C255.293 282.097 254.474 281.87 253.7 281.569C252.925 281.268 252.285 280.754 251.671 280.101L249.909 276.819Z" fill="#FFA8A7"/>
<path d="M313.344 230.568C323.444 231.523 329.049 238.524 326.571 269.465C319.391 274.118 306.716 270.152 306.716 270.152C304.561 236.265 310.056 232.544 313.344 230.568Z" fill="#0C4B96"/>
<path opacity="0.2" d="M313.344 230.568C323.444 231.523 329.049 238.524 326.571 269.465C319.391 274.118 306.716 270.152 306.716 270.152C304.561 236.265 310.056 232.544 313.344 230.568Z" fill="white"/>
<path d="M363.456 272.783L302.326 320.134C298.558 323.053 296.164 327.4 295.711 332.145L288.855 403.992C290.186 405.251 291.697 404.244 291.697 404.244L303.877 332.114C304.297 329.625 305.787 327.444 307.952 326.146L361.981 293.768C369.039 289.562 370.284 274.675 363.456 272.783Z" fill="#455A64"/>
<path d="M302.861 147.127C302.405 146.317 301.742 145.625 300.908 145.146L274.051 129.738C271.698 128.388 266.13 130.218 266.13 133.999V149.491C266.13 151.372 267.138 153.109 268.771 154.042L289.492 165.883L285.913 163.838L287.631 168.71C287.686 168.868 287.848 168.925 287.988 168.886L287.981 168.906C288.285 168.75 289.635 168.025 290.404 167.516C290.409 167.514 290.412 167.51 290.417 167.508C290.433 167.497 290.452 167.485 290.468 167.475L290.464 167.465C290.488 167.445 290.515 167.432 290.533 167.403L290.955 166.719L295.622 169.386C299.557 171.634 303.54 168.641 303.54 165.123V149.692C303.542 148.777 303.295 147.899 302.861 147.127Z" fill="#0C4B96"/>
<path opacity="0.2" d="M290.535 167.404C290.517 167.433 290.49 167.446 290.466 167.466L290.47 167.476C290.454 167.486 290.435 167.498 290.419 167.509C290.414 167.511 290.411 167.515 290.406 167.517C289.637 168.026 288.287 168.751 287.983 168.907L287.99 168.887C288.056 168.868 288.118 168.835 288.159 168.768L289.823 166.073L289.494 165.885L290.958 166.721L290.535 167.404Z" fill="white"/>
<path opacity="0.4" d="M297.647 150.089C297.307 149.416 296.837 148.81 296.244 148.331C296.244 148.331 296.242 148.329 296.24 148.328C296.042 148.168 295.83 148.022 295.604 147.893L268.747 132.485C267.582 131.817 266.13 132.658 266.13 134.001C266.13 130.22 271.698 128.39 274.051 129.74L300.908 145.148C301.742 145.627 302.405 146.319 302.861 147.129L297.647 150.089Z" fill="white"/>
<path opacity="0.2" d="M298.238 167.87V152.439C298.238 152.23 298.224 152.023 298.197 151.82C298.116 151.211 297.921 150.629 297.648 150.089L302.862 147.127C303.296 147.899 303.542 148.777 303.542 149.693V165.124C303.542 168.642 299.559 171.635 295.624 169.387C296.788 170.053 298.238 169.212 298.238 167.87Z" fill="white"/>
<path d="M289.094 148.111C289.515 148.354 289.935 148.781 290.255 149.333C290.894 150.44 290.891 151.633 290.247 152L281.272 157.115C280.963 157.291 280.545 157.249 280.11 156.998C279.675 156.747 279.258 156.307 278.951 155.775L275.939 150.526C275.3 149.419 275.303 148.226 275.947 147.859C276.269 147.676 276.689 147.734 277.109 147.976C277.529 148.218 277.948 148.645 278.268 149.199L280.123 152.444L287.934 147.993C288.255 147.81 288.675 147.869 289.094 148.111Z" fill="white"/>
<path d="M351.773 398.473L347.448 400.987L347.462 395.984L351.773 398.473Z" fill="#E6E6E6"/>
<path d="M347.567 371.778L347.568 371.724L347.567 371.778Z" fill="#787878"/>
<path d="M347.636 347.437L389.716 371.732L347.636 347.437Z" fill="#CFCFCF"/>
<path d="M351.773 398.473L389.619 420.324L389.605 425.326L394.109 427.927L394.276 369.139L343.111 339.599L342.944 398.387L347.448 400.987L347.462 395.985L351.773 398.473ZM389.662 390.801L347.583 366.507L347.637 347.438L389.716 371.733L389.662 390.801ZM389.593 415.082L347.514 390.787L347.568 371.777V371.723L389.647 396.018L389.593 415.082Z" fill="#E0E0E0"/>
<path d="M347.513 390.788L347.567 371.778L347.568 371.724L389.647 396.018L389.593 415.082L347.513 390.788Z" fill="#E0E0E0"/>
<path d="M347.582 366.506L347.636 347.437L389.716 371.732L389.662 390.801L347.582 366.506Z" fill="#E0E0E0"/>
<path d="M394.276 369.138L438.944 343.18L438.778 401.968L394.109 427.926L394.276 369.138Z" fill="#E0E0E0"/>
<path d="M394.276 369.138L343.11 339.598L387.779 313.639L438.944 343.18L394.276 369.138Z" fill="#E0E0E0"/>
<path opacity="0.2" d="M351.773 398.473L347.448 400.987L347.462 395.984L351.773 398.473Z" fill="white"/>
<path d="M347.567 371.778L347.568 371.724L347.567 371.778Z" fill="#787878"/>
<path d="M347.636 347.437L389.716 371.732L347.636 347.437Z" fill="#CFCFCF"/>
<path opacity="0.8" d="M347.513 390.788L347.567 371.778L347.568 371.724L389.647 396.018L389.593 415.082L347.513 390.788Z" fill="white"/>
<path opacity="0.8" d="M347.582 366.506L347.636 347.437L389.716 371.732L389.662 390.801L347.582 366.506Z" fill="white"/>
<path d="M361.353 362.45L361.372 359.817L375.945 368.231L375.926 370.864L361.353 362.45Z" fill="#E0E0E0"/>
<path d="M361.353 386.395L361.372 383.762L375.945 392.176L375.926 394.809L361.353 386.395Z" fill="#E0E0E0"/>
<path opacity="0.2" d="M394.276 369.138L438.944 343.18L438.778 401.968L394.109 427.926L394.276 369.138Z" fill="white"/>
<path opacity="0.4" d="M394.276 369.138L343.11 339.598L387.779 313.639L438.944 343.18L394.276 369.138Z" fill="white"/>
<path opacity="0.05" d="M404.199 328.804C398.518 325.524 389.337 325.524 383.693 328.804C378.048 332.084 378.078 337.402 383.759 340.682C389.441 343.962 398.621 343.962 404.266 340.682C409.91 337.402 409.88 332.084 404.199 328.804Z" fill="black"/>
<path d="M409.125 308.165L393.539 308.619L377.953 308.165C377.282 318.69 379.337 329.417 382.17 334.656L382.181 334.654C382.688 335.804 383.708 336.894 385.266 337.793C389.865 340.448 397.297 340.448 401.866 337.793C403.45 336.872 404.469 335.752 404.949 334.572C407.76 329.306 409.793 318.638 409.125 308.165Z" fill="white"/>
<path d="M404.523 301.781C410.63 305.307 410.662 311.022 404.595 314.548C398.528 318.074 388.66 318.074 382.553 314.548C376.447 311.023 376.415 305.307 382.482 301.781C388.549 298.256 398.417 298.256 404.523 301.781Z" fill="#EBEBEB"/>
<path d="M402.109 303.185C406.873 305.936 406.898 310.395 402.165 313.146C397.432 315.897 389.733 315.897 384.969 313.146C380.205 310.396 380.18 305.936 384.913 303.185C389.646 300.434 397.345 300.434 402.109 303.185Z" fill="#E0E0E0"/>
<g opacity="0.15">
<path d="M402.109 303.185C406.873 305.936 406.898 310.395 402.165 313.146C397.432 315.897 389.733 315.897 384.969 313.146C380.205 310.396 380.18 305.936 384.913 303.185C389.646 300.434 397.345 300.434 402.109 303.185Z" fill="black"/>
</g>
<path d="M392.238 308.605C394.855 310.749 398.36 311.544 401.38 310.684C404.392 309.826 406.846 307.342 407.787 304.206C405.881 303.378 404.382 302.157 402.783 300.734C405.01 300.147 407.596 300.239 409.867 300.984C411.095 299.112 411.409 296.415 410.401 294.229C407.714 293.049 404.627 292.83 401.951 293.644C404.319 291.593 407.329 290.64 410.495 290.951C410.806 283.292 408.443 277.826 408.443 277.826C402.632 278.128 396.998 280.633 395.098 282.434C394.775 284.758 395.741 288.607 395.741 288.607C393.087 287.135 393.041 284.615 393.041 284.615C389.405 285.524 387.85 287.34 387.282 288.724C387.549 291.001 389.65 294.807 390.724 295.698C387.309 294.666 385.924 290.862 385.924 290.862C382.568 298.822 383.209 307.83 392.238 308.605Z" fill="#0C4B96"/>
<path opacity="0.2" d="M392.238 308.605C394.855 310.749 398.36 311.544 401.38 310.684C404.392 309.826 406.846 307.342 407.787 304.206C405.881 303.378 404.382 302.157 402.783 300.734C405.01 300.147 407.596 300.239 409.867 300.984C411.095 299.112 411.409 296.415 410.401 294.229C407.714 293.049 404.627 292.83 401.951 293.644C404.319 291.593 407.329 290.64 410.495 290.951C410.806 283.292 408.443 277.826 408.443 277.826C402.632 278.128 396.998 280.633 395.098 282.434C394.775 284.758 395.741 288.607 395.741 288.607C393.087 287.135 393.041 284.615 393.041 284.615C389.405 285.524 387.85 287.34 387.282 288.724C387.549 291.001 389.65 294.807 390.724 295.698C387.309 294.666 385.924 290.862 385.924 290.862C382.568 298.822 383.209 307.83 392.238 308.605Z" fill="black"/>
<path opacity="0.3" d="M392.238 308.605C394.855 310.749 398.36 311.544 401.38 310.684C404.392 309.826 406.846 307.342 407.787 304.206C405.881 303.378 404.382 302.157 402.783 300.734C405.01 300.147 407.596 300.239 409.867 300.984C411.095 299.112 411.409 296.415 410.401 294.229C407.714 293.049 404.627 292.83 401.951 293.644C404.319 291.593 407.329 290.64 410.495 290.951C410.806 283.292 408.443 277.826 408.443 277.826C402.632 278.128 396.998 280.633 395.098 282.434C394.775 284.758 395.741 288.607 395.741 288.607C393.087 287.135 393.041 284.615 393.041 284.615C389.405 285.524 387.85 287.34 387.282 288.724C387.549 291.001 389.65 294.807 390.724 295.698C387.309 294.666 385.924 290.862 385.924 290.862C382.568 298.822 383.209 307.83 392.238 308.605Z" fill="white"/>
<path d="M392.035 309.467C392.026 309.467 392.018 309.467 392.009 309.466C391.824 309.452 391.686 309.291 391.7 309.106C392.255 301.768 396.454 289.654 406.463 279.662C406.594 279.531 406.807 279.531 406.938 279.663C407.069 279.794 407.069 280.007 406.938 280.138C397.059 290 392.916 301.934 392.37 309.157C392.356 309.333 392.209 309.467 392.035 309.467Z" fill="#F5F5F5"/>
<path d="M394.781 312.532C392.461 314.425 389.218 315.129 386.321 314.367C383.425 313.605 380.947 311.398 379.858 308.608C381.611 307.876 382.953 306.795 384.375 305.536C382.232 305.006 379.788 305.078 377.68 305.734C376.394 304.06 375.923 301.653 376.742 299.709C379.221 298.672 382.134 298.495 384.717 299.237C382.347 297.396 379.433 296.527 376.443 296.782C375.658 289.932 377.56 285.065 377.56 285.065C383.099 285.401 388.582 287.695 390.484 289.317C390.932 291.387 390.26 294.8 390.26 294.8C392.666 293.513 392.554 291.275 392.554 291.275C396.023 292.114 397.59 293.737 398.205 294.968C398.093 296.982 396.359 300.339 395.408 301.123C398.541 300.228 399.604 296.871 399.604 296.871C403.216 303.919 403.16 311.857 394.781 312.532Z" fill="#0C4B96"/>
<path opacity="0.3" d="M394.781 312.532C392.461 314.425 389.218 315.129 386.321 314.367C383.425 313.605 380.947 311.398 379.858 308.608C381.611 307.876 382.953 306.795 384.375 305.536C382.232 305.006 379.788 305.078 377.68 305.734C376.394 304.06 375.923 301.653 376.742 299.709C379.221 298.672 382.134 298.495 384.717 299.237C382.347 297.396 379.433 296.527 376.443 296.782C375.658 289.932 377.56 285.065 377.56 285.065C383.099 285.401 388.582 287.695 390.484 289.317C390.932 291.387 390.26 294.8 390.26 294.8C392.666 293.513 392.554 291.275 392.554 291.275C396.023 292.114 397.59 293.737 398.205 294.968C398.093 296.982 396.359 300.339 395.408 301.123C398.541 300.228 399.604 296.871 399.604 296.871C403.216 303.919 403.16 311.857 394.781 312.532Z" fill="white"/>
<path d="M395.003 313.333C394.84 313.333 394.697 313.213 394.672 313.047C393.719 306.658 389.076 296.052 379.128 287.189C378.99 287.065 378.978 286.853 379.101 286.715C379.224 286.576 379.435 286.564 379.575 286.687C389.656 295.669 394.365 306.446 395.335 312.947C395.363 313.131 395.236 313.301 395.053 313.329C395.037 313.332 395.02 313.333 395.003 313.333Z" fill="white"/>
</svg>
